<?xml version="1.0" standalone="no"?>
<!DOCTYPE svg PUBLIC "-//W3C//DTD SVG 20010904//EN"
 "http://www.w3.org/TR/2001/REC-SVG-20010904/DTD/svg10.dtd">
<svg version="1.0" xmlns="http://www.w3.org/2000/svg"
 width="491.000000pt" height="873.000000pt" viewBox="0 0 491.000000 873.000000"
 preserveAspectRatio="xMidYMid meet">

<g transform="translate(0.000000,873.000000) scale(0.100000,-0.100000)"
fill="#000000" stroke="none">
<path d="M2423 7769 c-295 -30 -591 -168 -741 -346 -90 -108 -141 -222 -206
-463 -9 -32 -33 -79 -57 -110 -22 -30 -45 -66 -51 -80 -17 -43 -11 -98 18
-150 l27 -49 -89 -101 c-130 -147 -153 -178 -165 -222 -16 -62 -3 -114 43
-164 l39 -43 -30 -42 c-40 -55 -53 -104 -41 -151 6 -20 17 -42 26 -49 11 -9
13 -22 9 -51 -5 -26 -1 -54 11 -87 l17 -48 -40 -54 c-44 -59 -56 -90 -72 -190
-6 -36 -20 -92 -31 -124 -33 -97 -25 -142 32 -171 43 -22 206 -12 323 21 78
21 89 22 132 9 25 -8 61 -14 78 -14 18 0 47 -10 66 -23 34 -23 79 -81 79 -101
-1 -21 -303 -227 -385 -262 -44 -20 -138 -60 -210 -91 -198 -85 -545 -250
-587 -279 -46 -32 -78 -96 -78 -155 0 -58 157 -520 340 -999 78 -204 150 -399
150 -405 0 -3 -30 -5 -66 -5 -68 0 -115 -18 -131 -49 -4 -9 -10 -119 -13 -246
l-5 -230 -78 -5 c-71 -4 -81 -8 -103 -33 l-24 -28 0 -430 0 -429 -46 0 c-48 0
-81 -13 -101 -39 -9 -12 -12 -136 -13 -504 l0 -488 26 -24 27 -25 1964 0 1965
0 29 29 29 29 0 482 0 482 -29 29 c-26 25 -37 29 -85 29 l-55 0 -3 435 -3 434
-23 23 c-18 19 -37 24 -100 28 l-77 5 -5 238 -5 239 -28 24 c-26 22 -37 24
-133 24 -63 0 -104 4 -104 10 0 10 224 561 491 1210 116 280 143 356 146 405
7 91 -10 110 -203 219 -355 201 -501 291 -522 321 -72 106 -165 246 -216 325
l-58 92 21 92 c20 85 28 102 119 236 121 180 162 258 207 393 89 266 85 581
-10 847 -138 386 -436 668 -830 789 -188 57 -383 78 -562 60z m343 -144 c235
-38 479 -156 645 -312 349 -330 449 -904 233 -1337 -24 -49 -87 -153 -138
-230 -86 -128 -97 -151 -120 -236 -13 -52 -27 -117 -31 -143 l-7 -48 -164
-110 c-337 -225 -619 -368 -924 -470 l-115 -38 -44 42 c-54 52 -108 133 -160
240 -21 45 -55 102 -74 127 l-35 45 42 20 c34 17 41 25 41 50 l0 30 -116 -3
-117 -3 2 53 c1 48 -1 53 -21 53 -13 0 -30 -13 -45 -34 -39 -58 -93 -95 -136
-93 -20 0 -57 -5 -82 -13 -46 -15 -187 -35 -194 -27 -2 2 2 18 9 36 8 18 19
70 24 115 12 92 19 109 71 168 20 23 41 57 46 75 9 30 13 33 54 36 25 2 50 8
57 14 32 26 -1 68 -52 68 -19 0 -46 5 -60 10 -34 13 -31 48 7 70 26 14 35 12
155 -27 71 -24 141 -45 156 -49 15 -4 42 -24 59 -45 68 -84 112 -24 71 97 -19
56 -34 82 -81 142 -37 47 -67 54 -83 18 -9 -18 -7 -31 10 -64 12 -23 21 -43
21 -46 0 -2 -57 16 -127 40 -104 37 -138 45 -183 42 -47 -3 -55 -1 -55 15 0
24 96 156 114 156 8 1 38 -11 67 -25 47 -23 57 -24 87 -15 52 17 72 45 72 100
0 58 -26 101 -60 101 -32 0 -39 -14 -25 -54 21 -64 -10 -85 -61 -41 -36 30
-93 42 -132 27 -34 -13 -60 -3 -77 29 -18 32 -3 57 104 179 56 63 114 130 129
148 37 46 36 93 -3 152 -16 25 -30 49 -30 55 0 5 20 39 45 76 37 53 54 92 86
203 54 189 103 280 204 382 70 70 96 89 195 138 117 57 247 99 355 115 97 14
293 12 391 -4z m733 -2547 c27 -46 75 -119 105 -163 35 -49 56 -90 56 -107 0
-15 -20 -125 -45 -245 -25 -120 -49 -233 -52 -251 -3 -18 -10 -35 -16 -39 -5
-3 -87 -25 -181 -49 -231 -58 -245 -76 -156 -200 116 -160 125 -175 109 -188
-247 -187 -725 -627 -962 -884 -78 -85 -146 -161 -150 -168 -6 -11 -50 -14
-217 -14 -116 0 -210 2 -210 6 0 12 190 320 292 472 175 262 295 424 603 812
392 492 592 778 730 1043 17 31 33 57 37 57 4 0 29 -37 57 -82z m-245 10 c-94
-160 -274 -425 -407 -598 -147 -191 -371 -470 -377 -470 -8 0 -230 548 -230
567 0 6 15 15 33 18 63 14 274 98 412 164 141 68 374 202 495 284 68 47 86 55
74 35z m-1319 -346 c16 -26 45 -64 64 -85 38 -42 41 -31 -40 -127 -26 -30 -73
-91 -104 -135 l-57 -80 7 55 c17 127 83 420 95 420 3 0 18 -21 35 -48z m-196
-54 c-52 -200 -94 -535 -110 -873 -11 -229 -2 -510 27 -905 l6 -75 -21 25
c-11 14 -48 111 -81 215 -55 170 -173 500 -229 643 -12 29 -21 57 -21 62 0 5
41 70 91 144 117 172 117 171 -66 281 -16 10 -15 16 15 75 18 36 63 119 101
185 67 119 68 121 180 208 63 48 116 87 120 87 4 0 -2 -33 -12 -72z m2332
-109 c204 -118 279 -166 279 -179 0 -19 -273 -695 -635 -1570 l-23 -55 -662
-3 -662 -2 50 57 c83 97 488 489 652 634 85 74 210 180 278 233 68 54 128 109
134 122 15 32 -1 64 -85 174 -42 54 -61 87 -53 91 6 4 72 21 146 39 158 38
164 41 178 77 11 28 65 277 98 451 10 50 20 92 22 92 3 0 130 -72 283 -161z
m-1888 -196 c32 -80 54 -149 49 -152 -4 -3 -36 -43 -70 -87 l-61 -82 -63 15
c-35 8 -64 16 -66 18 -11 11 -25 208 -16 230 9 25 153 205 163 205 3 0 32 -66
64 -147z m-855 128 c-1 -5 -39 -78 -82 -163 -76 -148 -78 -155 -65 -182 9 -18
40 -44 84 -68 39 -22 72 -41 74 -43 2 -2 -10 -21 -26 -42 -77 -99 -133 -193
-133 -225 0 -60 157 -443 298 -728 75 -151 138 -278 140 -282 2 -5 -97 -8
-221 -8 l-224 0 -46 119 c-130 333 -367 987 -427 1178 -45 143 -46 142 130
227 170 83 482 225 493 226 5 0 7 -4 5 -9z m540 -436 c7 -35 7 -54 -1 -63 -6
-8 -33 -55 -60 -105 l-48 -92 5 132 4 131 39 52 38 51 7 -28 c3 -15 11 -50 16
-78z m466 -65 l47 -111 -60 -82 c-72 -98 -100 -134 -101 -127 0 3 -11 67 -24
143 l-25 137 56 75 c31 41 57 75 59 75 1 0 23 -50 48 -110z m-352 -138 c20
-23 51 -9 63 28 11 33 12 34 18 10 3 -14 17 -100 31 -192 l26 -166 -133 -200
c-72 -110 -149 -228 -170 -262 -21 -34 -40 -60 -42 -59 -1 2 -8 117 -15 254
l-12 250 42 90 c22 50 71 146 108 215 67 124 67 124 70 85 2 -22 8 -46 14 -53z
m2006 -1429 l-3 -198 -1517 -3 -1518 -2 0 200 0 200 1520 0 1520 0 -2 -197z
m202 -723 l0 -400 -1723 0 c-948 0 -1726 2 -1728 4 -2 2 -3 182 -1 400 l2 396
1725 0 1725 0 0 -400z"/>
<path d="M1815 6754 c-38 -14 -94 -26 -124 -27 -61 -2 -78 -18 -67 -61 4 -18
17 -32 36 -39 25 -9 30 -17 32 -51 2 -33 8 -43 29 -53 24 -12 26 -17 23 -65
-4 -58 13 -88 51 -88 30 0 47 23 40 53 -7 27 -3 30 66 41 23 4 55 -1 92 -13
66 -23 87 -19 87 16 0 20 -11 29 -67 55 -38 17 -104 40 -148 52 -109 29 -110
45 -9 84 l78 30 93 -34 c103 -37 141 -42 149 -19 10 25 -16 45 -120 97 -115
56 -141 58 -241 22z"/>
<path d="M3023 6440 c-111 -23 -230 -130 -193 -175 18 -22 33 -19 76 16 87 71
194 91 249 47 34 -27 64 -92 65 -139 0 -115 -85 -259 -198 -335 -37 -24 -89
-60 -116 -79 -27 -20 -59 -38 -72 -41 -30 -8 -68 16 -86 53 -26 54 -70 39 -89
-31 -19 -72 -87 -203 -121 -232 -18 -15 -80 -49 -138 -76 -138 -64 -135 -62
-138 -87 -5 -33 21 -36 112 -13 102 25 199 71 248 119 30 30 78 117 102 186 5
17 7 17 32 0 39 -25 111 -22 161 8 82 48 242 169 276 209 73 86 127 221 127
320 0 113 -71 215 -169 244 -60 17 -66 18 -128 6z"/>
<path d="M3003 6251 c-26 -12 -52 -35 -69 -60 -24 -36 -26 -47 -20 -95 l6 -53
-41 -18 c-43 -20 -62 -44 -53 -69 10 -26 33 -26 97 3 77 35 97 68 80 134 -8
27 -8 48 -2 59 15 27 64 49 97 42 51 -10 56 42 6 64 -34 16 -52 15 -101 -7z"/>
</g>
</svg>
