<?xml version="1.0" standalone="no"?>
<!DOCTYPE svg PUBLIC "-//W3C//DTD SVG 20010904//EN"
 "http://www.w3.org/TR/2001/REC-SVG-20010904/DTD/svg10.dtd">
<svg version="1.0" xmlns="http://www.w3.org/2000/svg"
 width="491.000000pt" height="873.000000pt" viewBox="0 0 491.000000 873.000000"
 preserveAspectRatio="xMidYMid meet">

<g transform="translate(0.000000,873.000000) scale(0.100000,-0.100000)"
fill="#000000" stroke="none">
<path d="M2373 8499 c-70 -12 -162 -50 -215 -88 -75 -54 -116 -117 -138 -215
-5 -24 -21 -61 -35 -82 -28 -41 -29 -51 -15 -89 9 -24 6 -32 -25 -66 -41 -46
-51 -79 -35 -118 9 -23 9 -34 0 -51 -7 -12 -9 -34 -6 -49 17 -71 16 -90 -8
-125 -13 -19 -29 -65 -36 -101 -11 -57 -10 -68 4 -90 17 -26 20 -27 104 -28
29 0 51 -3 50 -8 -2 -4 -36 -32 -76 -63 -71 -55 -140 -86 -396 -180 -49 -18
-104 -46 -124 -61 -38 -31 -85 -123 -126 -248 -14 -43 -37 -89 -51 -104 -31
-33 -57 -81 -86 -160 -16 -42 -36 -70 -75 -105 -35 -32 -59 -65 -70 -96 -10
-26 -33 -64 -52 -86 -63 -71 -103 -191 -104 -311 0 -158 67 -280 187 -343 57
-29 184 -42 248 -24 30 8 37 8 37 -3 0 -8 -29 -218 -65 -467 -106 -742 -185
-1409 -185 -1565 0 -55 3 -64 27 -83 77 -60 256 -121 407 -137 l68 -8 -1 -124
c-1 -69 -4 -128 -6 -132 -3 -3 0 -164 7 -356 l11 -349 -37 -54 -38 -55 7 -85
c5 -63 2 -98 -9 -135 -9 -27 -16 -66 -16 -86 0 -50 -30 -75 -104 -83 -79 -9
-149 -40 -190 -87 -35 -38 -49 -75 -61 -161 -7 -43 -10 -48 -34 -48 -14 0 -86
-1 -160 -3 l-134 -3 -28 -32 -29 -32 0 -244 0 -243 -82 -6 c-77 -5 -85 -8
-111 -37 l-28 -31 3 -335 3 -336 28 -24 28 -24 1845 0 1846 0 29 29 29 29 0
326 c0 191 -4 335 -10 351 -12 31 -67 57 -113 54 -18 -2 -44 -2 -59 -1 l-28 2
0 230 c0 266 -5 291 -67 317 -31 13 -64 15 -183 10 -187 -7 -200 -5 -200 39 0
55 -38 121 -99 174 l-56 49 8 123 c9 140 5 184 -23 238 -21 40 -23 60 -55 550
-17 246 -38 453 -59 576 l-13 74 31 5 c254 41 373 71 410 103 10 10 24 28 31
42 11 20 34 31 124 59 167 51 169 56 126 277 -59 297 -216 813 -409 1343 l-16
43 69 75 c168 182 314 433 343 588 20 113 -8 212 -136 478 -35 72 -80 157
-101 187 -20 30 -46 83 -56 117 -11 34 -34 84 -53 111 -18 28 -37 67 -41 88
-15 84 -56 191 -86 227 -36 44 -82 69 -159 87 -30 7 -153 46 -274 86 l-218 73
-79 78 c-43 43 -79 83 -79 88 0 6 22 40 49 77 153 211 147 501 -15 686 -114
130 -313 201 -481 171z m262 -149 c160 -76 244 -223 232 -408 -4 -70 -11 -96
-40 -155 -20 -40 -52 -91 -72 -114 -27 -32 -39 -59 -49 -105 l-13 -63 -89 -52
c-49 -28 -136 -70 -193 -93 -103 -42 -104 -42 -136 -24 -19 10 -45 39 -64 71
l-30 54 25 9 c43 17 27 44 -26 48 -25 2 -49 7 -54 12 -5 5 -21 3 -37 -6 -16
-8 -53 -16 -82 -19 l-54 -4 6 32 c9 47 32 74 61 73 19 -1 25 4 25 21 0 11 3
25 7 29 11 11 -12 34 -33 34 -19 0 -26 15 -11 24 12 7 134 -32 154 -50 39 -36
52 25 18 81 -13 21 -31 35 -50 39 -34 6 -39 21 -10 29 25 7 25 28 0 58 l-20
24 -6 -23 c-5 -17 -11 -21 -23 -16 -9 4 -28 9 -43 12 -16 2 -28 8 -28 13 0 4
20 31 45 59 47 53 52 68 35 101 -8 15 -6 25 10 46 11 16 27 55 35 88 26 97 85
157 198 197 41 15 73 18 147 15 83 -3 104 -8 165 -37z m-558 -597 c-3 -2 -66
18 -77 25 -2 2 2 7 9 12 9 5 24 1 43 -13 15 -11 26 -22 25 -24z m780 -395 c48
-51 154 -249 136 -255 -6 -2 -30 -17 -52 -34 -64 -46 -56 -79 32 -138 26 -18
47 -35 47 -39 0 -4 -20 -74 -44 -157 -66 -228 -98 -389 -100 -510 0 -56 -4
-101 -8 -99 -9 6 -45 163 -68 300 -39 237 -49 468 -30 684 14 162 32 290 39
290 4 0 25 -19 48 -42z m-171 6 c-3 -9 -6 -31 -6 -49 0 -28 -17 -53 -112 -162
-62 -70 -116 -128 -121 -128 -6 0 -16 23 -24 50 -8 28 -23 74 -35 103 -11 29
-19 54 -17 56 2 2 36 15 74 30 39 15 106 46 150 70 91 49 100 52 91 30z m-490
-173 c-25 -49 -26 -55 -15 -109 11 -54 11 -60 -16 -112 l-28 -55 -17 51 c-10
28 -23 60 -29 72 -11 21 -3 60 41 206 l21 68 34 -35 35 -34 -26 -52z m-207
-63 c-21 -65 -66 -229 -99 -365 -34 -136 -62 -249 -64 -250 -2 -2 -24 2 -50 9
l-46 12 0 46 c0 25 -3 88 -7 142 l-6 96 54 27 c30 15 62 34 72 43 25 22 21 59
-9 89 -14 14 -23 31 -20 38 13 35 112 156 157 193 29 23 53 41 54 40 2 -2 -15
-56 -36 -120z m1473 -9 c32 -7 56 -20 72 -39 26 -31 61 -128 72 -197 4 -25 25
-70 50 -108 23 -36 46 -80 49 -98 4 -18 31 -75 60 -127 129 -227 225 -458 225
-539 0 -83 -54 -207 -163 -371 -78 -118 -136 -187 -262 -309 -124 -120 -126
-121 -140 -51 -16 80 -72 175 -143 241 l-69 64 112 115 c93 97 114 124 125
165 29 102 106 147 255 149 79 1 82 2 77 35 -3 12 -59 31 -93 31 -38 0 -37 16
2 24 22 4 30 11 27 23 -5 28 -102 24 -167 -6 -28 -14 -52 -23 -54 -20 -2 2
-18 45 -35 94 -43 122 -60 214 -73 413 -14 224 -21 267 -39 267 -40 0 -69
-279 -70 -681 0 -180 0 -181 -22 -180 -34 1 -33 -28 3 -111 l32 -74 -64 -65
c-35 -35 -66 -64 -69 -64 -3 0 -30 41 -60 91 -30 51 -62 94 -72 97 -20 5 -23
14 -38 112 -28 180 2 405 92 697 28 92 53 185 56 205 4 39 1 44 -67 96 l-24
19 36 22 c52 32 54 51 13 131 -20 38 -36 70 -36 72 0 2 80 -23 178 -55 97 -32
198 -63 224 -68z m-1152 52 c16 -50 -2 -101 -37 -101 -34 0 -40 50 -12 100 13
22 26 40 29 40 4 0 13 -18 20 -39z m-594 -114 c-31 -41 -33 -73 -6 -102 l20
-22 -39 -18 c-70 -31 -75 -41 -67 -152 3 -54 9 -130 12 -169 l6 -71 -32 -12
c-18 -6 -36 -11 -40 -11 -4 0 -10 77 -13 171 -3 94 -10 176 -15 181 -26 26
-56 -93 -74 -291 -8 -96 -17 -138 -35 -177 -23 -48 -27 -52 -68 -57 -87 -12
-225 -83 -210 -108 6 -8 148 -3 178 7 21 7 21 6 -2 -64 -43 -127 -36 -236 22
-345 16 -31 28 -59 26 -62 -13 -12 -130 -35 -181 -35 -228 0 -305 311 -128
514 34 39 50 66 50 85 0 32 10 45 71 93 37 30 51 50 78 120 18 45 50 106 73
135 22 29 46 74 54 100 19 63 73 194 89 216 11 16 213 104 243 106 8 1 3 -12
-12 -32z m936 -174 c-6 -382 55 -710 193 -1037 l44 -106 -42 -11 c-87 -23
-287 -92 -405 -141 -68 -28 -124 -49 -126 -47 -2 2 -30 45 -63 94 -33 50 -68
97 -77 104 -33 28 -66 3 -122 -94 -29 -49 -58 -91 -63 -93 -6 -2 -42 13 -81
34 -83 43 -79 20 -50 299 17 168 27 227 51 315 6 19 12 82 13 140 3 82 14 149
50 305 25 110 49 207 52 215 3 9 14 -5 28 -40 42 -101 96 -199 115 -210 12 -6
28 -7 43 -1 25 9 169 162 334 355 55 64 101 115 104 116 3 0 4 -89 2 -197z
m-273 126 c19 -39 19 -42 3 -65 -9 -13 -20 -24 -23 -24 -3 0 -10 21 -16 47 -8
34 -8 51 0 65 7 10 13 18 14 18 1 0 11 -18 22 -41z m-114 -84 c7 -5 15 -28 17
-51 3 -35 -2 -46 -34 -82 -21 -23 -40 -42 -42 -42 -3 0 -9 15 -15 33 -10 29
-7 43 19 107 16 40 31 80 31 89 1 9 4 3 6 -14 3 -16 11 -34 18 -40z m-496
-501 c27 -11 41 -23 46 -41 3 -14 4 -27 3 -29 -2 -2 -26 4 -53 12 -76 23 -153
2 -123 -33 6 -7 28 -13 49 -13 21 0 57 -7 79 -16 32 -13 40 -21 40 -41 0 -22
-3 -24 -22 -19 -48 14 -129 25 -143 19 -38 -14 -1 -53 50 -53 14 0 41 -7 60
-14 28 -12 35 -21 35 -42 0 -25 -2 -26 -37 -18 -21 4 -56 8 -78 8 -33 1 -40
-2 -40 -19 0 -16 9 -21 49 -27 27 -4 56 -14 65 -23 15 -15 14 -17 -4 -31 -15
-11 -33 -14 -72 -9 -36 4 -54 2 -62 -7 -6 -7 -21 -26 -34 -41 -22 -29 -74 -46
-139 -47 -28 0 -28 0 -28 70 0 86 21 149 89 268 60 105 81 126 146 145 65 20
77 20 124 1z m1639 -379 c7 -15 7 -25 -4 -40 -13 -17 -14 -15 -14 25 0 46 1
47 18 15z m-1662 -134 c-4 -20 -15 -148 -26 -286 -25 -302 -40 -428 -86 -684
-97 -545 -136 -777 -169 -991 -46 -302 -40 -279 -73 -285 -15 -3 -63 -14 -107
-24 -44 -10 -81 -18 -83 -16 -15 14 145 1293 233 1862 14 89 25 165 25 170 0
5 20 19 44 30 24 12 55 37 69 55 25 33 57 115 57 145 0 9 11 29 25 43 20 21
32 25 61 22 35 -4 35 -5 30 -41z m-226 -49 c0 -4 -7 -18 -16 -30 -15 -22 -17
-22 -35 -6 -25 22 -24 32 4 37 38 7 47 7 47 -1z m1481 -40 c6 -20 29 -72 50
-114 42 -83 43 -88 30 -88 -10 0 -111 215 -111 236 0 26 18 6 31 -34z m-36
-235 c12 -23 53 -105 93 -182 40 -77 80 -169 89 -205 15 -63 20 -165 14 -320
-1 -41 2 -145 8 -230 6 -85 15 -328 21 -540 l11 -385 49 -235 c64 -301 74
-388 116 -1010 14 -211 20 -253 40 -304 27 -68 35 -216 12 -216 -7 0 -38 10
-68 22 -62 24 -160 28 -227 9 -23 -6 -65 -27 -94 -46 -28 -20 -53 -34 -54 -33
-11 14 -38 218 -37 274 2 56 -7 111 -47 270 -27 110 -88 389 -135 619 -212
1033 -285 1310 -471 1795 -53 138 -68 161 -87 142 -18 -18 12 -212 64 -401
l42 -155 -12 -197 c-7 -108 -26 -331 -43 -495 -17 -165 -34 -409 -39 -544 -10
-280 -29 -495 -67 -760 -19 -130 -27 -231 -28 -340 -1 -85 -5 -174 -9 -197
l-8 -42 -49 19 c-27 11 -84 37 -127 59 -121 61 -195 83 -250 75 -42 -6 -45 -5
-37 12 5 11 9 60 10 109 l0 91 49 64 c63 84 73 105 57 124 -7 8 -18 13 -26 10
-18 -7 -28 286 -21 651 3 160 5 526 5 815 -1 560 3 637 51 985 16 116 36 293
46 395 9 102 18 190 20 197 2 8 30 -2 79 -28 82 -42 124 -49 150 -23 8 9 32
45 52 80 21 35 40 64 43 64 3 0 29 -36 57 -80 69 -103 76 -105 207 -50 113 48
492 180 516 180 8 0 24 -19 35 -43z m260 -156 c38 -39 85 -115 85 -136 -1 -11
-49 -69 -54 -64 -1 2 -8 24 -15 49 -7 25 -31 80 -52 122 -22 43 -39 80 -39 83
0 12 38 -15 75 -54z m427 -393 c131 -357 273 -822 332 -1089 31 -140 32 -152
9 -145 -51 16 -136 26 -223 26 l-97 0 -22 113 c-72 365 -202 809 -300 1027
-29 63 -55 121 -58 128 -4 9 8 7 35 -7 75 -38 118 -27 212 58 25 22 47 40 50
41 3 0 31 -69 62 -152z m-282 -438 c48 -155 96 -346 150 -600 55 -262 56 -265
82 -277 14 -6 70 -8 134 -5 127 5 176 -8 102 -26 -45 -12 -63 -26 -83 -65 -6
-12 -31 -29 -55 -38 -50 -19 -327 -65 -336 -56 -3 3 -14 38 -24 79 -15 59 -21
145 -30 458 -6 212 -15 459 -20 550 -14 238 -14 237 16 165 13 -33 42 -116 64
-185z m-910 -711 c64 -269 95 -418 87 -425 -3 -3 -51 -8 -106 -11 -82 -5 -101
-3 -101 8 0 8 14 151 30 319 17 168 30 309 30 314 0 32 17 -26 60 -205z m-856
-357 l6 -73 -48 6 c-127 17 -252 49 -252 64 0 9 100 31 140 31 15 0 38 9 52
19 26 21 24 11 65 306 l18 130 7 -205 c3 -113 9 -238 12 -278z m981 -214 c3
-13 16 -81 31 -153 58 -297 98 -482 150 -698 41 -174 54 -246 54 -305 0 -42 4
-93 10 -112 5 -19 17 -82 25 -140 12 -77 22 -111 37 -127 19 -20 19 -26 8 -93
-7 -39 -9 -77 -6 -85 6 -16 3 -16 -478 -19 l-229 -1 2 90 c1 49 7 98 13 109
16 30 30 168 33 336 2 80 12 211 24 291 29 204 59 509 66 674 3 77 8 163 11
192 l5 52 62 4 c170 9 176 9 182 -15z m-686 -1477 c81 -39 154 -71 160 -71 8
0 11 -25 9 -82 l-3 -83 -81 -3 c-75 -3 -82 -1 -87 18 -11 41 -78 38 -143 -7
-38 -25 -44 -26 -219 -30 -99 -2 -201 -1 -227 3 -47 6 -48 7 -48 41 0 47 36
109 74 126 17 8 62 17 100 21 38 3 81 13 95 22 39 25 81 66 76 74 -13 21 63
51 112 45 18 -2 100 -36 182 -74z m1452 14 c39 -19 61 -38 75 -63 10 -21 43
-52 72 -72 57 -37 81 -70 82 -109 l0 -23 -97 6 c-54 3 -123 9 -153 12 -33 3
-89 -1 -139 -10 -99 -19 -153 -20 -169 -4 -16 16 -14 70 6 149 21 81 29 91 95
124 67 34 145 31 228 -10z m663 -412 c9 -24 6 -402 -3 -408 -5 -2 -710 -5
-1567 -5 l-1559 -1 -3 216 -2 215 1564 0 c1452 0 1564 -1 1570 -17z"/>
<path d="M2194 8086 c-27 -8 -47 -10 -58 -4 -22 12 -36 2 -36 -29 0 -16 7 -27
20 -30 11 -3 20 -14 20 -24 0 -11 3 -19 8 -19 4 0 12 -10 17 -22 13 -30 41
-35 48 -8 4 18 12 21 44 18 53 -4 50 21 -5 40 -51 17 -46 37 8 28 21 -3 45 -9
54 -12 11 -4 16 0 16 14 0 14 -13 27 -43 41 -24 12 -45 21 -48 20 -2 0 -23 -6
-45 -13z"/>
<path d="M2630 7959 c-32 -13 -60 -39 -60 -56 0 -18 24 -17 62 3 63 32 104
-19 73 -92 -20 -49 -41 -71 -86 -95 -32 -16 -39 -16 -55 -4 -31 23 -40 18 -69
-40 -22 -45 -37 -61 -78 -85 -86 -48 -85 -47 -63 -56 23 -9 99 10 131 34 13 9
32 32 42 50 14 26 24 32 51 32 45 0 80 20 129 73 79 86 83 201 7 233 -38 16
-50 16 -84 3z"/>
<path d="M2621 7866 c-13 -13 -20 -30 -16 -36 4 -6 -1 -17 -11 -24 -10 -8 -15
-20 -11 -30 6 -15 9 -15 37 -1 22 11 30 23 30 41 0 18 7 28 20 31 26 7 22 37
-5 41 -12 2 -31 -8 -44 -22z"/>
<path d="M2147 6502 c-34 -37 -8 -102 40 -102 21 0 53 38 53 64 0 50 -60 75
-93 38z"/>
<path d="M2126 6248 c-33 -47 -10 -98 44 -98 16 0 36 7 44 16 35 35 6 104 -44
104 -18 0 -34 -8 -44 -22z"/>
<path d="M2120 5990 c-35 -35 -21 -90 27 -105 34 -10 77 37 68 73 -12 52 -60
67 -95 32z"/>
<path d="M2930 3395 c-20 -24 28 -297 90 -514 41 -143 50 -163 69 -159 13 3
16 19 15 103 -1 112 -20 222 -65 370 -61 196 -81 234 -109 200z"/>
</g>
</svg>
