<?xml version="1.0" standalone="no"?>
<!DOCTYPE svg PUBLIC "-//W3C//DTD SVG 20010904//EN"
 "http://www.w3.org/TR/2001/REC-SVG-20010904/DTD/svg10.dtd">
<svg version="1.0" xmlns="http://www.w3.org/2000/svg"
 width="604.000000pt" height="1074.000000pt" viewBox="0 0 604.000000 1074.000000"
 preserveAspectRatio="xMidYMid meet">

<g transform="translate(0.000000,1074.000000) scale(0.100000,-0.100000)"
fill="#000000" stroke="none">
<path d="M2693 10481 c-168 -46 -269 -134 -323 -283 -13 -35 -38 -83 -55 -108
-57 -79 -59 -88 -39 -131 l17 -39 -61 -64 c-47 -48 -62 -71 -62 -93 0 -27 22
-70 44 -85 6 -4 3 -19 -9 -41 -12 -23 -16 -43 -11 -63 30 -125 30 -124 -4
-159 -26 -27 -34 -46 -48 -125 l-16 -93 24 -19 c22 -18 34 -20 112 -14 134 10
197 -12 213 -74 5 -21 0 -28 -26 -44 -18 -11 -77 -61 -130 -113 -75 -71 -115
-101 -166 -124 -157 -71 -430 -186 -455 -192 -71 -18 -147 -147 -197 -337 -17
-63 -40 -126 -51 -140 -50 -63 -73 -104 -108 -195 -35 -93 -40 -101 -97 -145
-73 -57 -101 -96 -115 -163 -9 -46 -18 -59 -75 -110 -101 -90 -133 -168 -142
-342 -5 -94 -2 -122 17 -193 40 -146 122 -244 233 -277 69 -21 205 -19 299 4
43 10 79 17 81 15 2 -2 -9 -72 -24 -156 -138 -768 -239 -1731 -265 -2510 -8
-236 -6 -245 70 -279 72 -31 311 -70 483 -77 l158 -7 1 -165 c1 -91 14 -302
29 -470 18 -200 28 -376 29 -510 l1 -205 -32 -50 c-30 -49 -31 -54 -36 -194
l-5 -144 -44 -43 c-37 -38 -53 -45 -118 -59 -148 -31 -215 -89 -228 -196 l-7
-53 -168 -1 c-225 0 -207 23 -207 -275 l0 -228 -66 -4 c-110 -7 -104 19 -104
-439 0 -376 1 -390 20 -409 20 -20 33 -20 2070 -20 2037 0 2050 0 2070 20 19
19 20 33 20 410 l0 391 -25 24 c-20 21 -34 25 -85 25 l-60 0 0 229 c0 301 20
276 -221 276 l-183 0 -11 60 c-13 71 -22 89 -76 151 -27 31 -38 52 -33 63 13
31 31 118 38 183 7 59 4 73 -22 135 -29 68 -30 77 -41 329 -20 436 -40 629
-96 909 -19 94 -48 217 -64 275 -16 58 -27 108 -23 111 4 3 79 14 167 24 180
19 320 51 396 90 29 14 80 52 115 84 64 60 74 65 258 129 80 27 115 44 129 63
l19 26 -47 189 c-61 249 -192 639 -300 894 -48 113 -105 248 -127 300 -41 100
-258 694 -258 708 0 5 12 19 26 33 68 62 202 222 260 311 112 169 188 361 209
523 9 72 -16 179 -68 288 -54 115 -203 385 -272 494 -45 71 -53 92 -63 162
-13 93 -40 151 -109 237 -44 54 -53 73 -78 174 -37 141 -73 205 -135 236 -47
24 -292 101 -488 154 -62 16 -162 46 -223 66 l-111 36 -107 101 c-58 55 -107
101 -108 101 -1 1 3 23 8 51 6 31 24 71 49 107 94 133 149 308 136 431 -7 65
-79 259 -131 353 -40 70 -139 167 -216 212 -102 58 -201 84 -334 88 -96 3
-134 0 -192 -15z m336 -87 c98 -28 191 -82 261 -153 68 -68 83 -94 150 -260
35 -87 40 -109 40 -179 0 -107 -35 -219 -97 -310 -57 -83 -78 -129 -94 -210
-12 -63 -12 -64 -83 -114 -124 -87 -400 -208 -475 -208 -14 0 -52 15 -85 33
-55 30 -60 37 -81 96 -25 67 -53 104 -98 127 l-28 15 21 26 c25 32 26 72 3 79
-34 10 -87 39 -115 62 -15 13 -32 21 -38 17 -6 -4 -10 6 -10 23 0 16 -3 43 -6
60 -5 24 -2 31 14 36 21 7 177 -38 187 -54 3 -6 15 -10 26 -10 46 0 4 139 -45
148 -16 4 -18 0 -13 -27 8 -37 7 -37 -68 -11 -32 11 -71 20 -87 20 -33 0 -34
6 -8 40 16 21 27 25 72 25 46 0 53 3 53 20 0 14 -8 21 -25 23 -14 2 -30 8 -37
13 -6 6 -30 9 -53 7 -37 -2 -59 10 -60 33 0 3 32 40 70 83 39 42 70 81 70 86
0 5 -7 25 -16 44 -16 33 -16 35 9 68 14 18 42 72 62 120 43 103 100 163 199
209 105 49 258 58 385 23z m-726 -1013 c2 -11 28 -31 56 -45 28 -15 51 -31 51
-37 0 -16 -87 -50 -146 -56 l-54 -6 6 49 c5 36 15 58 37 82 36 37 43 39 50 13z
m1222 -385 c22 -13 49 -55 103 -157 83 -158 84 -136 -11 -201 -46 -32 -64 -58
-53 -77 4 -5 42 -30 86 -55 44 -26 80 -51 80 -56 0 -5 -15 -75 -34 -157 -96
-416 -129 -674 -107 -855 14 -115 24 -148 46 -148 13 0 15 20 15 133 0 72 7
188 15 257 18 159 76 469 115 625 16 66 30 136 30 157 0 35 -3 39 -65 75 -35
21 -65 41 -65 45 0 3 22 22 49 42 27 20 51 45 54 55 3 11 -18 63 -50 126 -30
58 -53 110 -51 114 3 8 401 -100 522 -142 39 -14 88 -28 108 -31 78 -14 115
-71 163 -248 14 -53 25 -99 25 -102 0 -3 22 -30 50 -61 67 -74 87 -118 99
-213 9 -74 15 -87 80 -191 94 -149 275 -490 301 -571 18 -53 21 -80 17 -145
-10 -156 -104 -370 -245 -560 -68 -92 -456 -495 -477 -495 -6 0 -21 35 -33 78
-56 190 -179 369 -291 421 -28 14 -51 27 -51 30 0 10 273 275 302 294 20 12
32 33 44 75 31 111 104 200 181 221 54 15 187 13 258 -4 80 -19 114 -19 122 1
13 34 -74 71 -212 90 l-50 8 43 6 c73 11 82 43 16 56 -59 11 -158 -22 -231
-78 -35 -26 -68 -48 -73 -48 -16 0 -28 34 -23 63 4 21 -6 47 -39 105 -57 97
-64 119 -85 272 -24 173 -23 480 1 661 24 184 24 174 2 174 -15 0 -25 -14 -39
-55 -42 -121 -59 -230 -64 -425 -4 -166 -2 -216 21 -397 27 -204 27 -209 12
-339 -9 -73 -18 -134 -20 -137 -3 -2 -13 3 -22 13 -15 15 -18 15 -32 1 -14
-14 -10 -26 38 -119 l53 -105 -21 -30 c-26 -36 -170 -172 -183 -172 -12 0 -59
65 -120 168 -50 81 -79 103 -79 59 0 -26 55 -145 106 -229 35 -57 35 -58 17
-82 -10 -14 -22 -24 -28 -22 -32 9 -224 383 -279 542 -138 402 -191 803 -202
1524 l-6 375 68 -71 c38 -39 83 -78 99 -88z m-314 -114 c-131 -183 -377 -472
-402 -472 -5 0 -9 17 -9 38 0 20 -6 69 -14 109 l-13 72 33 50 c40 59 41 80 13
156 -12 31 -19 58 -17 59 1 1 39 15 83 31 103 37 242 102 325 153 l65 40 3
-69 3 -70 -70 -97z m-562 22 c1 -2 -8 -18 -22 -36 -40 -54 -49 -95 -33 -156
18 -66 29 -79 75 -92 l38 -10 11 -77 c6 -43 14 -107 17 -143 l6 -65 -76 -75
c-86 -85 -77 -87 -125 28 -38 89 -67 203 -76 298 -6 66 -3 80 28 170 20 55 38
117 42 139 14 80 12 78 64 48 26 -14 49 -28 51 -29z m-259 -210 c-156 -476
-195 -602 -235 -764 -15 -58 -29 -107 -31 -109 -2 -3 -19 10 -38 28 -23 22
-47 34 -74 38 -30 4 -42 11 -46 27 -7 27 -7 355 0 382 3 13 35 38 81 64 78 45
103 65 103 81 0 6 -20 29 -45 51 -25 23 -45 44 -45 48 0 27 393 421 406 407 3
-2 -32 -116 -76 -253z m361 130 c23 -51 20 -76 -13 -116 -19 -21 -29 -25 -55
-21 -32 5 -33 7 -33 56 0 39 6 60 26 89 15 21 33 38 41 38 8 0 23 -21 34 -46z
m532 -261 c17 -660 116 -1182 298 -1562 32 -68 57 -126 55 -129 -3 -2 -42 -10
-88 -18 -168 -29 -344 -89 -558 -191 -63 -30 -139 -66 -168 -79 l-52 -24 -61
83 c-34 45 -88 128 -121 185 -33 56 -65 105 -71 109 -5 3 -16 -2 -23 -11 -10
-14 -10 -27 2 -67 l15 -49 -77 -125 c-41 -69 -78 -125 -80 -125 -2 0 -54 25
-116 56 l-111 56 7 116 c3 64 10 234 16 377 15 404 24 481 76 700 52 219 162
585 176 585 4 0 8 -9 8 -19 0 -60 126 -356 157 -368 17 -7 66 38 242 222 168
174 319 348 399 457 32 43 60 77 63 78 3 0 9 -116 12 -257z m-1268 52 c-25
-31 -45 -66 -45 -79 0 -12 14 -35 30 -51 17 -16 30 -32 30 -36 0 -4 -29 -23
-64 -43 -35 -20 -68 -44 -72 -53 -5 -10 -9 -119 -10 -242 l-1 -225 -54 -18
c-30 -9 -59 -18 -65 -18 -8 0 -10 73 -6 259 4 197 2 260 -7 266 -21 12 -32 -9
-46 -83 -15 -75 -35 -332 -35 -436 0 -53 -7 -77 -40 -148 l-40 -85 -87 -32
c-49 -17 -116 -35 -149 -40 -67 -10 -162 -53 -171 -77 -12 -31 13 -36 78 -14
42 15 76 20 100 16 21 -3 57 1 85 9 73 22 74 21 49 -42 -75 -188 -43 -435 72
-555 l36 -37 -84 -25 c-189 -57 -289 -58 -380 -3 -41 25 -60 45 -85 92 -67
123 -78 240 -38 401 18 71 46 107 142 185 38 30 45 44 57 95 18 84 21 90 76
125 64 41 92 76 114 140 30 94 75 183 109 219 28 28 39 54 59 135 33 134 81
256 113 286 21 20 340 166 367 168 4 1 -13 -24 -38 -54z m24 -821 c42 -35 74
-82 68 -98 -4 -11 -16 -10 -59 5 -73 24 -208 16 -208 -12 0 -11 3 -19 8 -19
16 0 191 -30 204 -35 21 -8 49 -61 42 -80 -6 -14 -15 -16 -43 -11 -20 4 -73 9
-118 13 -79 6 -83 5 -83 -14 0 -17 12 -23 88 -38 113 -22 124 -28 120 -68 l-3
-32 -100 0 c-82 0 -100 -3 -100 -15 0 -9 15 -18 40 -24 119 -25 141 -41 113
-79 -10 -13 -33 -19 -88 -24 -79 -6 -114 -24 -105 -53 11 -36 -65 -80 -140
-80 -30 0 -45 -5 -49 -16 -4 -11 -17 -14 -43 -12 l-38 3 -9 60 c-12 88 7 205
43 268 17 29 59 111 94 182 35 72 71 136 80 144 20 16 180 60 224 60 20 1 43
-8 62 -25z m2205 -410 c3 -9 6 -31 6 -50 0 -19 7 -48 16 -65 14 -28 14 -33 -9
-82 -14 -29 -28 -61 -31 -71 -8 -22 -24 -11 -28 19 -4 31 25 265 33 265 4 0
10 -7 13 -16z m-2178 -286 c-48 -987 -78 -1323 -187 -2068 -40 -271 -78 -501
-133 -806 -25 -139 -46 -254 -46 -257 0 -3 -62 -5 -137 -4 -103 0 -149 -4
-180 -16 -23 -9 -44 -13 -46 -9 -6 13 12 433 28 657 52 720 137 1417 242 1986
l36 195 47 22 c35 16 57 35 80 73 35 53 80 167 80 199 0 10 5 22 12 26 8 5 10
-66 5 -287 -8 -383 -28 -638 -83 -1078 -25 -204 -24 -231 9 -218 16 6 55 193
91 442 46 323 66 620 66 996 l0 239 28 0 c15 0 41 9 57 19 17 11 32 20 34 20
2 1 0 -59 -3 -131z m-306 -53 c0 -14 -49 -112 -61 -122 -11 -9 -22 -8 -48 4
-33 16 -89 88 -78 99 16 16 187 34 187 19z m1974 -324 c20 -32 36 -65 36 -73
0 -7 21 -49 46 -93 92 -159 143 -291 170 -437 14 -77 15 -104 5 -177 -6 -47
-19 -110 -28 -139 -15 -51 -15 -60 11 -230 36 -240 61 -495 80 -817 34 -583
32 -559 75 -701 53 -171 134 -489 166 -642 49 -244 74 -497 95 -967 8 -201 10
-212 36 -259 24 -43 26 -54 21 -118 -3 -39 -9 -73 -12 -76 -3 -3 -20 0 -38 7
-118 50 -173 63 -242 59 -85 -4 -156 -35 -237 -101 -32 -26 -62 -47 -66 -47
-5 0 -30 58 -56 128 -47 126 -47 128 -36 194 l10 66 -60 167 c-32 91 -73 215
-89 274 -31 112 -96 420 -131 620 -34 190 -89 424 -146 616 -50 169 -86 275
-249 725 -37 102 -148 423 -246 715 -99 291 -184 534 -189 539 -5 5 -16 6 -25
2 -12 -4 -15 -14 -10 -43 15 -86 70 -283 146 -523 l82 -254 -12 -261 c-18
-374 -48 -842 -67 -1029 -16 -150 -16 -174 -1 -341 35 -382 33 -418 -39 -945
-46 -332 -46 -335 -30 -397 15 -59 15 -68 -5 -185 -12 -68 -23 -125 -25 -126
-1 -2 -29 1 -61 7 -37 8 -121 44 -231 99 -173 87 -173 87 -255 89 l-82 2 -1
90 -2 90 69 78 c86 98 138 189 118 209 -17 16 -25 11 -68 -43 -18 -24 -37 -43
-42 -43 -6 0 -8 4 -5 9 9 15 -12 400 -39 716 -27 319 -31 442 -14 543 9 54 8
85 -5 162 -24 137 -34 295 -51 850 l-16 495 30 230 c41 304 77 671 92 928 8
143 16 207 24 207 6 0 56 -22 111 -50 103 -52 130 -58 156 -37 8 6 40 55 71
107 89 151 76 146 137 54 72 -108 117 -162 140 -169 14 -4 80 21 203 79 333
155 543 223 693 225 l51 1 37 -59z m257 -150 c46 -29 100 -88 138 -151 15 -25
21 -52 21 -96 0 -57 -3 -65 -41 -113 -41 -51 -59 -57 -59 -19 0 38 -61 203
-110 297 -28 51 -47 97 -44 102 10 17 50 9 95 -20z m683 -588 c55 -153 128
-345 164 -428 122 -284 149 -350 205 -500 85 -227 196 -588 213 -696 7 -39 6
-42 -12 -35 -109 42 -300 56 -443 32 -57 -10 -104 -16 -107 -14 -2 2 -24 85
-49 184 -142 553 -249 857 -466 1317 -49 104 -89 195 -89 203 0 8 11 27 24 41
l24 26 49 -30 c99 -63 126 -55 270 82 54 52 103 94 108 95 6 0 55 -125 109
-277z m-441 197 c3 -11 2 -22 -3 -25 -11 -7 -33 22 -25 35 10 16 22 12 28 -10z
m-80 -476 c169 -368 292 -726 411 -1199 38 -151 62 -225 76 -239 19 -20 20
-20 117 -1 115 23 278 25 371 6 34 -8 65 -17 67 -21 3 -5 -34 -22 -82 -40
-111 -40 -167 -72 -216 -125 -43 -48 -121 -87 -218 -109 -59 -14 -361 -56
-401 -56 -12 0 -25 29 -52 113 -52 165 -55 184 -66 402 -16 309 -39 635 -55
795 -17 167 -17 168 -46 355 -19 124 -20 148 -8 208 7 39 17 66 23 64 6 -2 42
-71 79 -153z m-1162 -960 c190 -529 227 -635 265 -764 23 -80 40 -148 38 -151
-2 -3 -94 -9 -204 -13 -110 -3 -206 -7 -213 -9 -16 -3 -15 48 11 408 11 165
24 377 27 470 6 162 11 212 21 202 3 -2 27 -67 55 -143z m-1061 -234 c1 -226
17 -501 34 -610 9 -52 16 -98 16 -102 0 -31 -539 28 -574 62 -14 14 97 23 212
18 63 -3 116 -1 130 5 26 12 23 2 57 202 14 83 33 184 40 225 16 82 65 367 66
384 0 6 4 2 9 -9 5 -11 9 -90 10 -175z m1402 -805 c8 -31 44 -209 122 -610 54
-272 108 -476 174 -652 47 -125 48 -130 44 -218 -4 -82 -1 -97 25 -165 17 -41
43 -112 58 -158 23 -66 35 -87 57 -98 l27 -14 -6 -83 c-3 -45 -8 -84 -10 -87
-3 -3 -248 -5 -546 -5 l-542 0 -3 74 c-2 57 1 77 14 92 10 12 19 47 24 96 5
43 14 108 21 145 10 55 10 83 -1 154 -13 85 -13 95 29 388 23 166 46 344 51
396 12 118 12 317 0 430 -5 47 -13 140 -16 208 l-7 122 49 1 c27 1 96 5 154 9
58 4 143 7 189 6 l85 -1 8 -30z m951 -1749 c94 -34 114 -49 127 -97 6 -22 28
-60 49 -82 49 -54 61 -78 61 -121 l0 -36 -222 -2 c-336 -4 -366 -4 -375 5 -4
5 -7 59 -5 120 3 125 3 125 100 184 99 59 160 65 265 29z m-1990 -47 c56 -29
127 -65 157 -80 30 -16 85 -36 122 -46 64 -16 66 -18 72 -52 9 -55 7 -99 -5
-106 -13 -8 -931 -15 -973 -7 -27 5 -28 7 -23 44 9 68 61 105 177 128 85 16
104 27 173 99 32 33 66 65 75 71 36 22 120 3 225 -51z m2647 -589 l0 -210
-1840 0 -1840 0 0 210 0 210 1840 0 1840 0 0 -210z m-1792 -298 l1962 -2 -2
-347 -3 -348 -2005 0 -2005 0 -3 340 c-1 187 0 345 2 352 3 7 21 11 48 9 24
-2 926 -4 2006 -4z"/>
<path d="M2555 10044 c-22 -8 -58 -18 -80 -22 -44 -8 -59 -38 -30 -62 8 -7 15
-20 15 -30 0 -10 7 -23 15 -30 8 -7 15 -21 15 -31 0 -28 29 -52 46 -38 8 6 14
18 14 26 0 12 14 15 77 12 55 -3 77 0 80 8 5 15 -73 51 -132 62 -22 3 -40 11
-40 15 0 5 19 16 43 25 36 13 49 13 90 2 65 -18 77 -18 77 -1 0 18 -101 80
-130 80 -11 -1 -38 -8 -60 -16z"/>
<path d="M3154 9859 c-34 -10 -94 -60 -94 -78 0 -22 28 -22 69 -2 76 39 121
18 121 -55 -1 -66 -32 -118 -100 -168 -66 -49 -79 -53 -109 -34 -28 17 -49 3
-60 -40 -20 -73 -50 -104 -131 -137 -86 -35 -100 -43 -100 -56 0 -15 53 -10
112 10 95 33 115 47 140 101 22 48 24 50 64 50 32 0 56 9 102 41 77 50 105 84
131 154 25 67 26 92 5 144 -24 62 -84 90 -150 70z"/>
<path d="M3139 9741 c-17 -18 -29 -40 -29 -56 0 -16 -9 -34 -22 -45 -18 -14
-20 -21 -11 -30 8 -9 19 -9 47 0 37 12 55 43 42 75 -4 11 6 23 29 37 28 16 33
23 24 34 -18 22 -48 16 -80 -15z"/>
<path d="M2575 7940 c-52 -20 -59 -79 -14 -112 20 -15 30 -17 52 -9 54 21 61
97 12 119 -14 7 -27 12 -28 11 -1 0 -11 -4 -22 -9z"/>
<path d="M2529 7582 c-15 -13 -22 -30 -22 -52 0 -38 23 -60 63 -60 55 0 80 70
40 110 -25 25 -51 25 -81 2z"/>
<path d="M2532 7240 c-20 -8 -42 -45 -42 -71 0 -19 41 -49 68 -49 60 0 83 72
36 109 -30 23 -30 23 -62 11z"/>
<path d="M3730 3715 c-15 -18 -14 -19 75 -335 40 -140 89 -322 110 -405 39
-155 55 -189 77 -167 24 24 -73 474 -158 731 -64 193 -75 211 -104 176z"/>
</g>
</svg>
