<?xml version="1.0" standalone="no"?>
<!DOCTYPE svg PUBLIC "-//W3C//DTD SVG 20010904//EN"
 "http://www.w3.org/TR/2001/REC-SVG-20010904/DTD/svg10.dtd">
<svg version="1.0" xmlns="http://www.w3.org/2000/svg"
 width="658.000000pt" height="754.000000pt" viewBox="0 0 658.000000 754.000000"
 preserveAspectRatio="xMidYMid meet">

<g transform="translate(0.000000,754.000000) scale(0.100000,-0.100000)"
fill="#cc0000" stroke="none">
<path d="M3060 7303 c-402 -32 -747 -137 -1113 -339 -258 -142 -450 -287 -667
-504 -338 -337 -591 -721 -709 -1075 -134 -401 -139 -844 -16 -1327 82 -324
278 -783 503 -1177 59 -104 66 -121 64 -166 -1 -53 -18 -256 -36 -445 l-11
-115 -61 -3 -60 -3 -106 -177 c-58 -97 -122 -207 -142 -243 -20 -36 -44 -73
-54 -81 -9 -8 -87 -55 -172 -103 -180 -103 -378 -223 -385 -234 -2 -5 62 -38
143 -74 702 -311 1056 -508 1792 -997 l181 -120 1360 0 c834 0 1359 4 1357 9
-6 18 -279 369 -359 463 -43 51 -79 96 -79 100 0 4 39 85 87 180 69 139 102
221 165 413 43 132 84 245 91 252 7 6 86 49 176 94 l164 82 151 -22 c83 -12
195 -31 249 -42 129 -25 147 -24 355 11 197 34 217 43 284 123 87 101 86 98
48 302 -11 55 -26 158 -34 229 -9 71 -22 139 -30 151 -16 25 -166 148 -172
142 -2 -2 23 -50 56 -107 75 -131 87 -181 71 -294 -15 -98 -12 -119 36 -240
l35 -89 -60 -60 -61 -61 -32 32 c-21 21 -56 38 -103 52 -39 12 -85 26 -102 31
-24 7 -37 22 -59 69 -16 33 -38 69 -49 79 -68 64 -444 176 -508 152 -13 -4
-66 -14 -118 -20 -52 -7 -109 -17 -127 -23 -30 -9 -40 -4 -152 71 -66 45 -128
81 -138 81 -10 0 -101 -28 -203 -62 l-185 -61 -95 37 c-273 108 -773 317 -978
409 l-234 104 -39 62 c-22 34 -83 135 -136 224 -53 89 -102 168 -109 176 -11
12 -18 10 -46 -14 -89 -75 -184 -92 -318 -54 -145 40 -211 89 -407 301 -29 31
-85 81 -125 111 -134 99 -244 241 -328 420 -60 129 -83 231 -78 357 3 91 8
112 32 158 52 101 152 187 253 219 80 24 215 19 307 -11 85 -29 195 -95 264
-158 57 -52 125 -82 185 -81 77 1 101 34 138 192 19 81 21 86 87 150 123 121
174 220 205 401 9 48 23 90 39 114 25 36 26 41 14 80 -12 38 -52 162 -62 196
-3 9 -43 -24 -119 -100 -63 -63 -119 -116 -124 -118 -7 -2 -11 25 -11 80 0 68
-6 98 -31 168 -45 122 -46 151 -10 278 37 132 38 149 6 192 -14 19 -25 37 -25
42 0 4 16 42 37 84 l36 77 -43 37 -43 37 17 44 c44 110 217 425 298 541 7 9
10 19 7 22 -2 3 -79 24 -169 47 -91 22 -172 45 -180 49 -10 6 -4 13 25 25 169
73 368 150 525 203 74 25 137 47 139 49 12 9 -17 8 -169 -4z m-390 -4746 c38
-19 58 -43 145 -172 l100 -150 125 -65 c69 -36 193 -101 277 -145 l152 -80 76
-138 c42 -76 73 -142 70 -147 -6 -10 69 -137 243 -409 198 -309 222 -349 222
-369 0 -22 -146 -452 -157 -463 -5 -5 -116 60 -248 143 -132 83 -303 191 -380
239 -127 80 -143 93 -164 136 -21 43 -141 304 -436 953 -196 431 -356 775
-376 808 -10 18 -19 35 -19 37 0 3 156 -72 370 -178z"/>
<path d="M5596 5395 c3 -11 11 -36 16 -55 12 -42 42 -93 80 -138 15 -18 28
-41 28 -51 0 -26 -34 -66 -88 -102 -72 -49 -112 -90 -112 -116 0 -15 23 -48
63 -91 35 -37 72 -80 82 -95 9 -15 22 -27 28 -27 13 0 3 127 -14 164 -12 25
-11 29 6 39 10 5 37 27 60 48 34 32 43 48 58 110 l17 73 -56 49 c-47 42 -103
109 -162 193 -12 18 -13 18 -6 -1z"/>
<path d="M4470 5325 c-36 -7 -110 -25 -164 -40 -108 -29 -142 -29 -217 4 -96
41 -98 37 -19 -44 41 -43 93 -85 115 -95 37 -17 47 -17 130 -5 133 21 175 19
226 -9 40 -23 213 -91 283 -113 68 -21 37 -37 -224 -122 -69 -22 -186 -63
-260 -92 -83 -31 -169 -57 -225 -66 -49 -8 -91 -16 -93 -17 -1 -2 16 -6 39
-10 22 -4 59 -16 81 -27 48 -24 55 -23 195 37 57 24 113 44 125 44 11 0 62
-13 113 -30 66 -21 117 -30 179 -32 97 -3 97 -3 70 -81 -20 -60 -66 -96 -142
-112 -44 -9 -52 -14 -37 -20 11 -4 44 -18 74 -31 72 -32 88 -30 152 14 46 33
54 42 52 68 -8 118 -9 172 -2 191 13 36 43 37 105 1 47 -26 69 -32 111 -32 30
1 56 4 60 8 3 3 -6 36 -20 73 -50 128 -52 121 55 179 54 30 94 58 96 68 2 10
-6 42 -18 71 l-22 54 -39 -19 c-62 -32 -37 -38 -354 90 -264 106 -314 118
-425 95z"/>
<path d="M1772 4491 c-135 -35 -201 -177 -152 -327 26 -80 55 -140 71 -150 7
-4 9 -3 6 3 -13 21 21 183 48 228 59 102 156 100 246 -6 50 -58 99 -132 99
-149 0 -5 -27 -39 -60 -76 -67 -74 -74 -92 -68 -169 5 -56 65 -193 79 -178 4
4 14 34 23 66 18 63 80 137 115 137 15 0 19 -11 24 -80 7 -92 22 -125 80 -182
45 -44 132 -98 158 -98 21 0 46 29 60 69 10 28 9 35 -12 57 -12 13 -45 37 -73
53 -28 16 -58 37 -68 47 -23 27 -35 82 -27 134 23 152 24 142 -11 185 -18 22
-67 91 -108 154 -87 129 -175 222 -246 258 -53 27 -132 37 -184 24z"/>
<path d="M6115 4019 c-53 -54 -84 -69 -146 -69 -40 0 -65 7 -107 31 -106 60
-233 49 -349 -29 -89 -59 -113 -67 -160 -52 -53 17 -72 37 -79 82 -8 47 -13
51 -43 29 -67 -51 -12 -209 91 -260 35 -17 53 -19 147 -14 96 5 110 3 154 -17
27 -13 45 -26 40 -31 -4 -4 -36 -10 -71 -13 -80 -8 -106 -20 -93 -45 6 -10 7
-28 4 -40 -4 -17 -10 -20 -27 -14 -37 14 -111 9 -138 -9 -15 -10 -43 -47 -64
-84 -42 -75 -106 -132 -201 -176 -79 -38 -114 -35 -128 10 -5 17 -13 32 -18
32 -14 0 -201 -71 -213 -81 -6 -5 -14 -52 -16 -104 -6 -104 -19 -134 -69 -160
l-30 -16 7 -72 c4 -40 8 -74 10 -76 2 -2 34 4 71 12 37 9 94 21 126 27 55 11
61 15 87 58 61 100 61 100 138 94 75 -5 132 6 317 63 160 49 294 83 361 90 86
10 193 -24 231 -74 41 -53 50 -112 20 -124 -7 -3 -49 2 -92 10 -68 12 -109 12
-265 2 -102 -7 -214 -17 -250 -24 l-64 -11 69 -32 c135 -62 164 -77 165 -84 0
-3 -16 -34 -35 -68 l-35 -61 118 6 c173 9 165 6 157 67 -7 50 -7 51 16 45 13
-4 29 -7 35 -7 6 0 44 -22 85 -50 41 -27 77 -50 80 -50 4 0 3 21 -2 46 -9 45
-8 48 30 89 22 24 46 57 55 73 19 36 21 108 5 149 -32 82 -32 81 26 108 102
49 148 132 127 227 -12 50 -58 124 -102 163 l-23 20 8 -25 c4 -14 14 -45 22
-70 12 -35 13 -51 4 -73 -6 -16 -16 -25 -21 -22 -21 13 -48 82 -60 155 -13 74
-14 76 -79 139 -38 37 -61 66 -54 68 7 3 52 24 100 48 127 62 182 127 183 218
0 26 -12 21 -55 -24z m-237 -588 c37 -10 79 -24 93 -29 27 -11 43 -37 33 -53
-8 -14 -84 -11 -164 7 -67 16 -76 16 -104 1 -47 -25 -77 -35 -251 -87 -88 -26
-194 -60 -235 -74 -89 -32 -152 -47 -145 -35 3 4 31 21 63 37 82 40 271 150
310 179 23 17 55 28 100 34 37 5 94 16 127 23 82 19 95 19 173 -3z"/>
<path d="M5488 2383 c-13 -3 2 -17 50 -50 67 -46 144 -111 255 -213 l59 -55
-6 45 c-13 81 -36 148 -62 179 -14 17 -57 46 -96 66 -58 28 -81 35 -127 34
-31 -1 -64 -3 -73 -6z"/>
</g>
</svg>
