<?xml version="1.0" standalone="no"?>
<!DOCTYPE svg PUBLIC "-//W3C//DTD SVG 20010904//EN"
 "http://www.w3.org/TR/2001/REC-SVG-20010904/DTD/svg10.dtd">
<svg version="1.0" xmlns="http://www.w3.org/2000/svg"
 width="491.000000pt" height="873.000000pt" viewBox="0 0 491.000000 873.000000"
 preserveAspectRatio="xMidYMid meet">

<g transform="translate(0.000000,873.000000) scale(0.100000,-0.100000)"
fill="#000000" stroke="none">
<path d="M2242 7889 c-78 -14 -199 -56 -261 -91 -69 -40 -171 -135 -211 -198
-35 -55 -74 -167 -85 -245 -4 -27 -13 -57 -20 -65 -23 -28 -45 -79 -45 -106 0
-15 11 -47 25 -70 l25 -43 -33 -53 c-18 -29 -39 -68 -46 -86 -16 -38 -9 -97
14 -122 14 -15 13 -21 -5 -63 -18 -39 -19 -53 -10 -86 5 -21 16 -44 24 -50 7
-6 16 -27 19 -47 5 -28 0 -44 -20 -75 -20 -30 -29 -63 -40 -150 -13 -105 -13
-112 4 -131 25 -28 75 -48 104 -42 24 5 24 5 -3 -18 -23 -20 -207 -98 -578
-246 -41 -17 -95 -36 -118 -42 -62 -16 -122 -79 -150 -156 -47 -130 -98 -398
-121 -636 -7 -64 -18 -112 -36 -152 -27 -62 -117 -357 -161 -529 -14 -54 -41
-137 -60 -184 -46 -111 -52 -187 -29 -358 43 -330 136 -664 288 -1038 51 -124
168 -277 213 -277 9 0 14 -10 14 -27 0 -16 7 -129 15 -253 8 -124 19 -295 25
-380 5 -85 12 -179 14 -207 l5 -53 -120 0 c-144 0 -183 -12 -204 -64 -12 -28
-15 -87 -15 -274 l0 -239 -51 -5 c-38 -4 -58 -12 -77 -32 l-27 -26 -3 -322
c-2 -230 1 -330 9 -350 26 -62 -122 -58 1917 -58 l1863 0 24 25 25 24 0 340
c0 339 0 340 -23 366 -18 22 -34 27 -85 32 l-62 6 0 253 0 254 -29 32 -29 33
-156 3 -156 3 0 228 c0 125 3 329 7 453 l6 226 28 -10 c39 -14 91 5 127 46 28
32 174 319 279 551 173 380 293 782 293 984 0 151 -71 463 -186 821 -26 80
-57 195 -71 255 -43 202 -142 573 -165 621 -40 86 -135 154 -215 154 -26 0
-271 90 -483 178 -80 33 -156 63 -170 67 -14 4 -47 30 -75 59 -27 28 -85 84
-129 125 l-78 73 4 66 c4 60 9 74 50 132 62 88 93 152 124 257 23 76 27 106
27 218 0 112 -4 142 -27 220 -47 155 -129 284 -239 375 -81 66 -217 136 -314
161 -90 23 -271 33 -351 18z m278 -131 c202 -38 371 -165 460 -343 50 -102 70
-186 70 -301 0 -157 -28 -252 -112 -381 -81 -123 -88 -144 -88 -261 l0 -102
-102 -76 c-94 -70 -237 -147 -349 -189 -45 -16 -48 -16 -96 5 -29 12 -55 31
-61 44 -6 13 -31 48 -55 78 l-46 56 117 32 c140 38 205 66 254 109 45 39 78
105 78 154 0 53 -31 51 -66 -5 -39 -64 -84 -107 -132 -128 -54 -24 -242 -77
-303 -85 -45 -7 -46 -6 -52 24 -9 42 -37 41 -71 -4 -39 -50 -126 -92 -126 -61
0 21 -19 20 -50 -1 -17 -12 -25 -13 -28 -5 -5 17 -27 15 -42 -3 -22 -26 -27
-17 -22 38 4 51 21 87 63 137 19 22 22 23 30 7 12 -21 48 -22 55 -2 4 8 3 30
0 49 -6 31 -10 35 -54 43 -62 11 -65 37 -4 41 62 5 203 -26 229 -50 33 -31 57
-20 61 27 4 50 -30 105 -73 120 -17 6 -47 21 -68 34 -34 21 -37 25 -24 38 13
13 19 12 46 -8 24 -18 34 -20 43 -11 10 10 6 24 -17 68 -36 67 -56 87 -80 78
-12 -5 -15 -14 -11 -35 7 -37 -4 -42 -49 -23 -29 12 -44 13 -70 4 -36 -12 -75
0 -75 22 0 6 27 53 60 105 68 105 75 140 34 172 -14 11 -30 21 -35 23 -6 2 1
23 14 48 14 25 30 78 37 118 49 296 354 468 710 400z m-702 -1017 c15 -10 40
-26 55 -35 16 -10 27 -19 25 -21 -2 -2 -28 3 -58 11 -30 8 -72 12 -92 9 -43
-6 -44 -4 -22 30 20 30 54 32 92 6z m1417 -783 c58 -86 105 -161 105 -166 0
-5 -19 -22 -42 -37 -99 -64 -122 -110 -75 -152 16 -15 123 -90 195 -138 4 -3
-59 -268 -108 -455 -84 -319 -122 -509 -128 -635 l-6 -120 -22 95 c-105 437
-141 805 -160 1620 l-6 285 71 -70 c46 -45 109 -126 176 -227z m-365 196 l0
-76 -88 -136 c-134 -208 -137 -211 -142 -212 -3 0 -23 35 -44 78 -21 42 -53
102 -72 133 -19 31 -34 61 -34 65 0 5 46 31 103 57 56 26 138 74 182 106 44
33 83 60 88 60 4 1 7 -33 7 -75z m-695 -104 c28 -18 51 -34 53 -35 1 -1 -14
-26 -34 -56 -20 -30 -51 -84 -70 -121 -19 -38 -36 -68 -39 -68 -6 0 -29 56
-65 155 -27 78 -28 84 -18 167 l11 87 56 -48 c31 -26 79 -63 106 -81z m-280
88 c-10 -45 -35 -219 -75 -523 -52 -393 -82 -586 -124 -800 -40 -198 -52 -311
-35 -331 32 -39 56 1 115 193 60 202 125 568 165 936 7 64 15 117 18 117 4 0
17 -28 30 -62 69 -180 267 -532 318 -565 42 -28 69 -4 181 157 57 83 161 241
232 352 71 112 135 212 144 223 14 18 15 7 16 -126 1 -401 47 -869 121 -1229
53 -256 99 -417 235 -818 48 -138 84 -258 81 -265 -8 -22 -398 -195 -744 -330
l-42 -17 -88 101 c-48 56 -98 105 -111 110 -33 13 -55 -1 -157 -102 l-91 -89
-109 56 c-168 87 -344 195 -500 307 -38 28 -72 52 -74 53 -2 2 31 105 73 230
125 370 125 450 11 1194 -73 476 -80 533 -69 537 6 2 61 33 122 69 146 86 154
112 56 185 -30 22 -54 44 -54 50 0 22 215 292 278 348 37 34 70 61 75 61 4 0
5 -10 2 -22z m1634 -197 c203 -79 319 -119 376 -127 56 -8 99 -57 124 -142 11
-37 45 -166 74 -287 30 -121 66 -267 80 -325 15 -58 49 -177 77 -265 63 -200
123 -437 146 -579 15 -93 16 -122 6 -200 -31 -238 -143 -576 -308 -928 -42
-90 -90 -192 -106 -228 l-29 -65 -41 77 c-66 127 -199 255 -330 319 -27 13
-48 27 -48 33 0 5 45 109 100 231 92 205 100 229 110 314 6 51 17 105 25 121
32 62 135 120 212 120 48 0 73 16 73 46 0 19 -8 28 -35 40 -55 23 -130 16
-216 -20 -24 -10 -41 35 -28 74 6 16 13 30 15 30 3 0 18 -10 34 -22 l30 -22
84 29 c73 23 96 27 161 23 116 -8 130 32 23 68 -50 16 -158 16 -245 -2 -29 -6
-33 -3 -52 35 -55 107 -64 263 -36 616 20 244 17 560 -5 560 -43 0 -89 -267
-147 -855 -22 -229 -27 -329 -28 -600 l-2 -325 -35 -75 c-20 -41 -53 -112 -74
-158 -20 -45 -41 -79 -44 -75 -14 15 -172 474 -166 480 2 2 9 -11 16 -29 39
-95 140 -298 150 -298 37 0 24 70 -76 393 -41 133 -81 282 -90 330 -23 131
-14 181 148 829 118 472 119 424 -12 511 -44 28 -80 55 -80 59 0 4 20 21 45
38 51 35 75 66 75 96 0 11 -24 55 -54 96 -74 104 -90 128 -80 128 4 0 87 -31
183 -69z m-1117 -25 l26 -44 -25 -70 -25 -71 -36 3 c-34 3 -36 6 -52 62 -9 33
-19 65 -24 72 -4 8 5 28 24 52 44 56 76 55 112 -4z m-946 -64 c-37 -49 -66
-100 -66 -113 0 -15 17 -39 49 -69 l49 -46 -89 -48 c-49 -26 -97 -59 -106 -72
-21 -33 -15 -101 37 -439 101 -660 102 -669 104 -866 l1 -186 -90 -271 c-49
-149 -93 -271 -96 -272 -11 0 -33 146 -32 220 1 41 9 109 18 150 22 102 31
377 16 510 -43 376 -74 631 -91 735 -21 131 -74 372 -83 382 -3 3 -14 3 -23
-1 -15 -6 -16 -28 -11 -244 3 -130 13 -304 21 -387 9 -82 16 -241 17 -353 1
-187 -1 -209 -22 -267 l-22 -63 -56 20 c-101 35 -271 8 -271 -43 0 -17 8 -19
64 -19 70 0 174 -28 221 -60 38 -25 61 -25 103 0 l32 20 0 -55 c0 -60 -12 -75
-40 -50 -31 28 -91 44 -171 45 -85 0 -113 -13 -107 -51 2 -20 11 -26 58 -35
97 -19 128 -34 168 -79 39 -44 39 -46 45 -147 4 -62 22 -175 46 -283 21 -99
37 -183 35 -186 -2 -3 -24 -12 -50 -19 -89 -25 -231 -131 -290 -216 -26 -38
-40 -51 -46 -42 -18 28 -148 441 -178 562 -41 169 -71 369 -73 481 -2 82 1 96
30 160 18 39 49 131 68 205 52 195 111 389 156 507 21 57 39 121 39 142 0 62
57 440 79 529 37 144 80 212 133 212 17 0 398 154 458 185 14 7 26 12 28 10 2
-2 -26 -43 -62 -93z m754 -128 c11 -32 9 -45 -11 -105 -13 -38 -27 -69 -30
-69 -4 0 -14 18 -23 40 -16 39 -15 41 16 105 18 36 33 65 34 65 2 0 8 -16 14
-36z m345 -139 c-8 -16 -24 -41 -34 -54 l-18 -23 -22 83 c-21 80 -21 86 -6
123 l16 38 41 -68 c39 -68 39 -70 23 -99z m-210 -25 c8 7 15 22 15 33 0 11 3
18 6 14 8 -8 43 -174 44 -206 0 -22 -67 -141 -80 -141 -3 0 -24 32 -48 71
l-43 71 26 92 c37 129 35 126 51 87 12 -28 16 -31 29 -21z m-820 -2315 c263
-173 510 -305 569 -305 26 0 45 15 117 89 l87 90 62 -72 c92 -106 106 -117
146 -117 61 0 416 141 716 284 76 36 139 62 141 58 3 -4 15 -38 27 -77 13 -38
31 -81 40 -95 33 -49 129 -236 163 -320 74 -178 77 -205 77 -618 0 -203 -3
-410 -6 -460 l-7 -92 -1273 0 c-701 0 -1274 3 -1274 8 0 4 -10 144 -21 312
-12 168 -22 409 -23 535 l-1 230 32 95 c20 58 62 146 108 225 98 166 119 207
140 277 11 35 23 55 29 51 6 -4 74 -48 151 -98z m-471 -257 c-43 -83 -87 -199
-101 -271 -5 -21 -13 -39 -18 -39 -6 -1 -27 27 -49 60 l-38 62 26 54 c14 29
45 75 68 101 44 50 125 114 144 115 6 0 -8 -37 -32 -82z m2650 -22 c60 -61
115 -142 138 -204 11 -28 9 -35 -19 -74 -17 -23 -35 -44 -40 -45 -6 -2 -25 38
-42 88 -18 51 -56 140 -84 198 -28 58 -53 110 -55 114 -10 22 46 -21 102 -77z
m336 -1711 l0 -225 -1635 0 -1635 0 0 225 0 225 1635 0 1635 0 0 -225z"/>
<path d="M2003 7222 c-72 -25 -84 -26 -97 -14 -21 22 -46 7 -46 -26 0 -33 24
-59 60 -64 17 -2 24 -8 22 -21 -2 -11 6 -21 23 -27 15 -6 25 -17 25 -30 0 -28
43 -48 65 -30 8 7 13 21 10 30 -4 14 2 19 30 23 20 3 47 1 61 -5 20 -9 28 -8
41 4 14 15 13 18 -10 33 -14 9 -53 22 -86 28 -34 6 -61 14 -61 17 0 4 16 14
35 23 31 15 39 15 86 1 81 -24 98 16 22 54 -66 34 -92 34 -180 4z"/>
<path d="M2722 7115 c-52 -27 -79 -56 -67 -75 10 -16 32 -12 86 16 90 45 149
8 149 -93 0 -81 -45 -156 -129 -216 -64 -46 -76 -49 -105 -26 -51 40 -87 -1
-46 -53 49 -63 150 -39 248 59 86 86 128 206 102 297 -29 105 -132 144 -238
91z"/>
<path d="M2735 6993 c-24 -24 -26 -33 -21 -70 3 -24 2 -43 -3 -43 -14 0 -23
-32 -12 -43 7 -7 24 -4 52 8 l41 19 -5 47 c-6 51 3 62 42 52 14 -3 23 0 27 11
19 50 -75 64 -121 19z"/>
<path d="M2297 4962 c-23 -25 -21 -58 3 -82 27 -27 46 -25 76 5 25 26 26 52 2
83 -15 18 -63 15 -81 -6z"/>
<path d="M2214 4707 c-103 -39 -177 -107 -221 -203 -28 -61 -41 -148 -24 -158
17 -11 200 -38 215 -33 7 3 16 23 18 45 14 100 68 152 159 152 96 0 159 -61
159 -153 0 -67 -19 -98 -125 -207 -51 -52 -103 -113 -114 -136 -25 -47 -43
-140 -39 -192 l3 -37 99 -5 c54 -3 101 -3 106 0 4 3 10 28 14 55 12 84 40 128
139 216 51 44 105 99 120 122 42 62 61 138 54 223 -10 136 -81 234 -215 297
-61 29 -77 32 -177 34 -95 3 -118 0 -171 -20z"/>
<path d="M2303 3659 c-67 -20 -108 -114 -79 -182 45 -108 217 -101 255 10 37
106 -65 205 -176 172z"/>
<path d="M2291 2956 c-28 -34 -43 -545 -21 -741 21 -188 31 -235 56 -251 29
-19 61 -5 70 31 3 14 -1 109 -10 212 -9 104 -23 310 -31 458 -9 149 -18 278
-21 288 -6 20 -27 22 -43 3z"/>
</g>
</svg>
