<?xml version="1.0" standalone="no"?>
<!DOCTYPE svg PUBLIC "-//W3C//DTD SVG 20010904//EN"
 "http://www.w3.org/TR/2001/REC-SVG-20010904/DTD/svg10.dtd">
<svg version="1.0" xmlns="http://www.w3.org/2000/svg"
 width="491.000000pt" height="873.000000pt" viewBox="0 0 491.000000 873.000000"
 preserveAspectRatio="xMidYMid meet">

<g transform="translate(0.000000,873.000000) scale(0.100000,-0.100000)"
fill="#000000" stroke="none">
<path d="M2260 8191 c-286 -63 -461 -229 -516 -491 -10 -47 -28 -100 -40 -118
-37 -53 -39 -87 -12 -140 l24 -47 -43 -83 c-48 -92 -53 -131 -23 -180 19 -30
19 -35 5 -55 -21 -30 -19 -109 3 -138 29 -36 34 -93 13 -121 -23 -30 -38 -79
-46 -153 -3 -33 -8 -72 -11 -86 -8 -41 38 -89 84 -89 35 0 36 -1 15 -15 -36
-25 -601 -246 -664 -260 -91 -20 -145 -71 -179 -170 -28 -80 -83 -332 -125
-570 -19 -110 -48 -243 -64 -295 -43 -137 -125 -451 -166 -630 -20 -85 -45
-189 -57 -230 -18 -60 -22 -99 -21 -195 1 -219 57 -559 138 -840 97 -340 245
-631 356 -703 l35 -23 12 -262 c7 -144 17 -335 23 -425 6 -89 9 -169 5 -177
-4 -12 -28 -15 -120 -15 l-114 0 -26 -31 -26 -31 0 -248 0 -248 -56 -4 c-41
-4 -61 -11 -80 -29 l-24 -25 -1 -344 c0 -190 0 -353 0 -363 1 -10 12 -29 26
-42 l24 -25 1861 0 1862 0 29 29 29 29 0 357 0 357 -29 29 c-26 25 -37 29 -85
29 l-56 0 0 240 c0 255 -5 286 -49 310 -11 5 -73 10 -138 10 -179 0 -161 -30
-156 253 2 133 6 328 9 432 l6 190 54 0 c48 0 57 4 88 35 64 65 261 473 370
768 122 328 206 715 192 886 -13 159 -120 629 -226 991 -16 55 -44 168 -61
250 -122 596 -170 703 -336 755 -80 25 -359 136 -536 213 l-147 65 -106 113
c-57 63 -118 121 -134 129 -28 14 -30 18 -30 81 0 62 3 71 44 130 105 154 146
273 153 444 4 100 2 135 -16 209 -51 213 -194 397 -381 490 -126 62 -218 86
-360 91 -89 4 -134 1 -200 -14z m280 -112 c221 -35 401 -161 489 -340 55 -113
72 -184 72 -304 -1 -152 -34 -253 -127 -389 -60 -88 -64 -103 -72 -235 l-7
-115 -90 -68 c-93 -70 -246 -153 -348 -188 -58 -19 -58 -19 -112 1 -33 12 -56
28 -60 39 -3 11 -26 43 -50 72 l-44 53 117 33 c140 39 205 68 254 111 45 39
78 105 78 154 0 53 -30 50 -63 -5 -42 -71 -92 -114 -168 -142 -77 -29 -201
-61 -270 -70 -45 -7 -46 -6 -52 24 -9 41 -38 39 -71 -5 -39 -50 -126 -92 -126
-61 0 20 -14 20 -45 0 -19 -12 -29 -14 -38 -5 -10 8 -19 7 -33 -4 -29 -22 -31
-19 -26 38 5 55 25 98 65 135 21 20 25 21 30 8 4 -9 15 -16 26 -16 52 0 44 93
-8 105 -16 3 -32 5 -37 4 -39 -7 -48 27 -9 37 52 13 219 -19 252 -48 41 -38
75 -5 59 58 -8 29 -63 94 -81 94 -18 0 -85 40 -85 50 0 4 6 13 13 19 11 8 18
6 32 -9 10 -11 24 -20 32 -20 26 0 23 27 -10 86 -26 47 -38 59 -57 59 -20 0
-25 -5 -25 -25 0 -40 -13 -53 -33 -34 -13 13 -28 15 -78 11 -49 -5 -65 -3 -75
9 -14 17 -9 27 68 145 59 91 57 113 -11 162 -18 14 -18 15 2 43 13 17 28 64
38 113 42 224 192 367 434 416 81 16 166 18 250 4z m-668 -1024 c21 -14 49
-30 64 -35 44 -17 19 -23 -38 -10 -29 7 -72 12 -95 11 -49 -1 -52 3 -21 36 27
29 45 29 90 -2z m1360 -675 c17 -30 62 -101 99 -156 l68 -102 -69 -46 c-113
-75 -107 -106 39 -202 50 -32 91 -66 91 -74 0 -8 -17 -81 -39 -161 l-38 -145
46 -53 46 -53 59 220 c36 138 55 228 51 241 -4 12 -45 47 -91 78 -46 31 -84
59 -84 62 0 4 13 14 29 24 50 30 91 74 91 99 0 13 -29 66 -65 118 -36 52 -65
97 -65 101 0 4 12 1 28 -6 101 -49 424 -175 501 -195 56 -15 104 -65 131 -136
28 -77 93 -330 140 -553 23 -106 48 -212 56 -235 50 -140 170 -645 205 -859
21 -127 22 -148 11 -245 -32 -283 -167 -724 -321 -1047 -37 -77 -74 -155 -82
-172 -14 -33 -29 -44 -29 -22 0 23 -63 134 -108 192 -51 65 -178 165 -260 206
-48 23 -52 28 -47 51 6 22 81 207 155 380 19 45 30 92 35 150 4 47 13 99 20
115 23 58 118 120 197 130 74 10 86 14 92 31 14 37 -39 74 -108 74 -27 -1 -93
-20 -148 -44 -12 -5 -18 -1 -24 16 -7 22 -6 89 1 97 2 2 16 -6 31 -18 35 -27
57 -27 151 5 67 23 88 25 149 20 61 -6 73 -4 78 10 9 24 -9 41 -66 60 -49 16
-69 16 -243 2 -27 -3 -33 2 -57 52 -41 82 -66 194 -79 358 -11 126 -10 180 5
377 10 127 22 328 28 448 11 199 10 219 -5 234 -11 11 -20 14 -26 8 -23 -25
-80 -342 -105 -585 -39 -371 -52 -1007 -27 -1283 14 -157 14 -158 -8 -210 -12
-29 -45 -109 -74 -179 -28 -71 -54 -128 -57 -128 -11 0 -195 518 -187 526 2 3
17 -26 32 -63 54 -130 135 -283 149 -283 25 0 27 17 11 82 -16 61 -144 449
-151 457 -8 8 -174 -142 -174 -158 0 -15 108 -345 154 -471 9 -24 15 -49 12
-56 -2 -6 -109 -71 -238 -144 -128 -73 -235 -134 -236 -136 -2 -1 8 -25 24
-53 l27 -51 56 32 c31 17 106 59 166 93 61 34 140 81 178 103 37 23 69 42 71
42 2 0 13 -28 26 -62 12 -35 58 -128 101 -208 88 -164 137 -278 174 -405 24
-85 25 -95 25 -390 0 -166 -3 -370 -7 -453 l-6 -152 -1303 0 c-807 0 -1305 4
-1309 9 -11 19 -37 548 -39 781 -1 217 1 241 22 314 30 102 75 199 160 344 39
65 77 145 87 180 10 34 19 62 21 62 2 0 56 -40 121 -89 121 -90 363 -256 366
-249 23 39 46 103 40 108 -4 4 -57 40 -118 80 -125 83 -196 136 -307 227 l-76
63 86 258 c86 257 86 257 87 362 0 58 -4 167 -9 243 l-8 137 -60 0 -61 0 7
-37 c3 -21 8 -126 12 -233 l6 -195 -67 -190 c-37 -104 -76 -221 -87 -258 -12
-37 -25 -64 -29 -60 -4 4 -15 56 -25 115 -17 105 -17 108 6 248 20 123 22 162
17 303 -19 488 -117 1488 -158 1593 -10 27 -34 32 -43 8 -13 -34 -5 -392 15
-668 25 -342 22 -677 -6 -806 -9 -41 -18 -76 -19 -77 -1 -1 -22 5 -46 14 -113
40 -310 -1 -274 -58 3 -5 34 -9 69 -9 69 0 173 -28 220 -60 40 -27 71 -25 100
5 l25 24 0 -69 0 -69 -50 31 c-43 26 -63 32 -130 36 -63 4 -85 1 -105 -12 -50
-33 -28 -63 60 -81 78 -17 115 -38 150 -85 22 -29 25 -44 25 -112 0 -55 14
-144 45 -294 25 -118 43 -219 40 -224 -4 -6 -12 -10 -18 -10 -23 0 -137 -59
-189 -98 -61 -46 -112 -98 -157 -161 l-31 -44 -24 54 c-118 268 -226 784 -230
1099 -1 86 4 123 26 205 15 55 57 220 93 366 35 146 85 333 109 415 25 82 52
192 61 244 55 324 114 590 150 667 21 46 28 53 67 63 34 9 197 71 497 188 8 3
-16 -34 -52 -82 -42 -54 -67 -97 -67 -112 0 -26 32 -64 80 -96 l25 -16 -87
-41 c-112 -52 -128 -68 -128 -126 0 -46 68 -526 76 -534 5 -5 3 -8 53 67 l42
63 -25 182 c-14 101 -26 190 -26 199 0 11 38 36 111 74 163 85 173 115 65 190
-31 22 -56 42 -56 45 0 8 104 141 196 250 68 81 170 176 179 168 2 -2 -5 -57
-16 -121 -22 -135 -91 -679 -87 -683 2 -1 30 10 64 26 l60 27 18 158 c9 87 19
160 20 162 2 1 33 -57 68 -131 l65 -134 94 17 94 16 20 59 c18 56 20 58 25 30
7 -39 41 -42 51 -5 7 29 14 17 24 -42 l6 -38 56 0 c47 0 54 2 49 17 -4 9 -14
45 -22 79 -15 59 -15 66 0 99 9 19 20 35 24 34 4 0 22 -30 39 -66 l33 -65 -27
-45 c-31 -53 -24 -63 48 -63 46 0 46 0 85 63 21 34 72 114 114 177 l75 115 5
-207 c3 -119 9 -211 15 -216 6 -5 24 -14 40 -20 17 -5 38 -13 48 -17 16 -7 17
15 12 431 l-6 439 81 -85 c44 -47 94 -110 112 -140z m-424 -146 c-62 -95 -116
-174 -119 -174 -7 0 -149 268 -149 281 0 4 30 20 67 35 74 31 211 115 271 164
l37 30 3 -81 3 -81 -113 -174z m-579 139 l51 -29 -37 -54 c-21 -30 -54 -86
-74 -124 l-37 -70 -17 40 c-10 21 -31 75 -47 119 -30 80 -32 122 -12 228 l6
28 58 -54 c32 -30 81 -68 109 -84z m231 -127 l26 -37 -22 -67 c-21 -66 -22
-67 -60 -70 l-39 -3 -17 59 c-9 32 -20 65 -23 73 -3 9 9 32 30 56 43 50 65 48
105 -11z m-187 -220 c0 -23 -10 -63 -23 -91 l-23 -50 -18 42 -19 42 32 65 c26
54 34 63 42 49 5 -9 9 -35 9 -57z m-1183 -2997 c-47 -96 -71 -162 -101 -279
l-11 -45 -25 30 c-13 17 -35 49 -49 72 l-25 42 19 43 c29 65 93 139 168 196
38 28 70 50 72 48 1 -2 -20 -50 -48 -107z m2724 -18 c60 -64 102 -131 121
-195 l13 -43 -40 -47 -41 -47 -38 103 c-22 57 -66 158 -99 226 l-60 123 45
-32 c25 -18 69 -58 99 -88z m281 -1671 l0 -215 -1627 -3 -1628 -2 0 220 0 220
1628 -2 1627 -3 0 -215z"/>
<path d="M2039 7536 c-56 -20 -68 -22 -84 -10 -22 16 -45 2 -45 -28 0 -25 44
-68 69 -68 14 0 18 -5 14 -20 -4 -14 1 -22 20 -29 15 -6 27 -19 29 -33 2 -19
9 -23 38 -23 32 0 35 2 33 29 l-2 29 70 -7 c69 -6 70 -6 67 16 -3 20 -14 26
-80 42 -43 10 -78 22 -78 26 0 17 61 32 98 25 97 -18 92 -19 92 4 0 28 -85 71
-137 70 -21 0 -68 -11 -104 -23z"/>
<path d="M2784 7442 c-22 -11 -51 -32 -63 -48 -19 -24 -20 -29 -7 -42 13 -13
20 -12 60 12 57 33 106 34 143 2 25 -22 28 -31 28 -83 -1 -74 -33 -133 -107
-196 -86 -72 -106 -79 -137 -46 -42 45 -81 -3 -42 -53 30 -38 83 -43 147 -14
197 90 280 356 142 459 -38 28 -113 32 -164 9z"/>
<path d="M2788 7310 c-24 -25 -29 -37 -25 -63 2 -19 -2 -41 -11 -55 -24 -37
-2 -50 49 -27 40 19 41 20 36 61 -5 49 7 68 35 53 23 -12 38 -4 38 21 0 47
-78 53 -122 10z"/>
<path d="M2255 5674 c-224 -40 -419 -139 -561 -286 -157 -161 -238 -356 -251
-601 l-6 -117 323 2 c275 3 324 5 330 18 5 8 13 54 19 102 22 165 73 250 185
308 66 34 74 35 175 35 94 0 113 -3 163 -27 75 -35 141 -103 170 -176 30 -75
30 -203 1 -278 -42 -108 -95 -167 -293 -329 -181 -147 -260 -238 -320 -368
-45 -96 -60 -187 -60 -368 l0 -159 290 0 290 0 4 23 c3 12 7 78 9 147 6 210
44 267 305 461 245 183 324 267 397 422 79 166 97 349 51 530 -91 356 -402
606 -831 667 -98 14 -295 11 -390 -6z"/>
<path d="M2310 3246 c-155 -44 -263 -158 -296 -316 -34 -164 32 -329 168 -420
85 -56 150 -73 263 -68 79 3 101 8 159 37 84 41 157 115 199 200 30 62 32 73
32 171 0 94 -3 111 -28 164 -54 117 -137 190 -258 227 -69 22 -171 24 -239 5z"/>
<path d="M2340 2238 c0 -73 20 -221 32 -235 13 -16 60 -17 76 -1 13 13 16 153
6 232 l-7 46 -53 0 -54 0 0 -42z"/>
</g>
</svg>
