<?xml version="1.0" standalone="no"?>
<!DOCTYPE svg PUBLIC "-//W3C//DTD SVG 20010904//EN"
 "http://www.w3.org/TR/2001/REC-SVG-20010904/DTD/svg10.dtd">
<svg version="1.0" xmlns="http://www.w3.org/2000/svg"
 width="531.000000pt" height="944.000000pt" viewBox="0 0 531.000000 944.000000"
 preserveAspectRatio="xMidYMid meet">

<g transform="translate(0.000000,944.000000) scale(0.100000,-0.100000)"
fill="#000000" stroke="none">
<path d="M2044 9371 c-179 -49 -311 -127 -440 -262 -130 -138 -163 -210 -174
-386 -6 -106 -10 -127 -34 -167 -17 -30 -34 -46 -46 -46 -16 0 -20 -7 -20 -36
0 -31 3 -36 20 -31 15 4 22 -1 26 -21 9 -34 40 -98 67 -134 23 -31 21 -44 -24
-145 l-23 -53 18 -108 18 -108 -41 -59 c-51 -73 -52 -97 -7 -119 19 -9 39 -16
44 -16 8 0 52 -122 52 -146 0 -4 -17 -28 -38 -53 -80 -98 -84 -113 -63 -236
14 -84 44 -141 90 -172 45 -31 72 -29 182 11 l94 35 -35 -30 c-19 -17 -71 -48
-115 -69 -366 -178 -876 -400 -921 -400 -59 0 -128 -63 -169 -153 -34 -73 -80
-260 -100 -402 -9 -60 -33 -164 -55 -230 -52 -161 -68 -256 -82 -470 -10 -173
-12 -186 -60 -335 -27 -85 -56 -184 -64 -219 -19 -80 -51 -308 -60 -429 -6
-86 -9 -96 -45 -146 -29 -41 -39 -64 -39 -93 l1 -38 25 30 c42 51 162 230 215
322 53 92 82 156 105 233 15 53 13 50 -69 -95 -35 -60 -80 -135 -100 -165
l-37 -55 0 47 c0 68 28 270 50 363 10 44 51 178 89 298 39 121 71 228 71 238
0 26 -16 24 -23 -3 -25 -95 -7 210 19 322 8 36 32 119 53 185 23 69 44 161 51
215 6 52 20 137 31 188 51 235 110 340 196 347 53 4 357 132 667 279 76 37
140 65 142 63 2 -2 -79 -98 -181 -212 -117 -133 -185 -217 -185 -230 0 -12 22
-48 50 -79 27 -31 50 -61 50 -66 0 -5 -51 -38 -114 -74 -62 -37 -122 -76 -132
-87 -17 -20 -19 -39 -18 -243 1 -248 11 -390 55 -746 34 -286 63 -446 124
-697 25 -100 45 -186 45 -192 0 -5 -47 -129 -105 -274 -86 -220 -109 -289
-134 -411 -35 -165 -57 -341 -67 -529 -4 -70 -10 -130 -14 -132 -13 -8 -60
184 -70 284 -27 275 -6 480 105 1036 45 227 61 324 52 315 -9 -9 -114 -439
-143 -583 -15 -75 -29 -136 -31 -134 -2 2 -10 60 -18 128 -71 613 -78 1012
-25 1464 28 233 50 455 49 485 -1 14 -11 -14 -23 -62 -12 -48 -24 -90 -27 -93
-7 -6 -42 165 -64 312 -8 57 -15 158 -15 225 0 67 -2 119 -5 116 -15 -15 -24
-182 -15 -288 9 -105 65 -454 75 -470 6 -10 -17 -183 -26 -194 -4 -4 -29 19
-55 53 -26 33 -49 61 -51 61 -10 0 2 -25 48 -101 l52 -84 -12 -170 c-23 -315
-15 -718 19 -1025 6 -47 10 -91 10 -97 0 -26 -74 -43 -229 -53 -206 -13 -271
-25 -321 -61 -22 -16 -40 -33 -40 -39 0 -5 15 -12 33 -15 32 -6 71 -2 277 30
108 17 276 20 285 5 3 -5 9 -32 12 -59 5 -42 3 -50 -13 -54 -54 -15 -136 -18
-225 -6 -71 9 -103 9 -110 2 -17 -17 31 -37 161 -67 215 -50 197 -40 204 -99
3 -29 6 -72 6 -97 l0 -45 -93 -51 c-102 -57 -166 -82 -274 -109 -40 -9 -70
-21 -67 -26 12 -20 194 23 309 73 50 22 97 42 106 45 14 4 17 -10 23 -96 4
-55 5 -105 2 -110 -3 -5 -26 -12 -50 -15 -49 -8 -143 -60 -195 -109 -38 -36
-85 -106 -77 -114 3 -3 39 26 81 65 81 76 161 122 210 122 l32 0 21 -108 c12
-59 35 -149 52 -201 17 -52 29 -100 26 -108 -3 -8 -22 -13 -48 -13 -183 -1
-372 -259 -406 -555 l-8 -70 -23 44 c-25 49 -146 322 -194 441 -27 67 -30 87
-31 180 0 84 5 124 27 201 35 126 33 140 -8 55 -40 -81 -30 -93 -96 124 l-44
145 -3 -74 c-2 -62 3 -92 36 -200 35 -112 39 -134 35 -201 -7 -106 15 -193 90
-367 36 -81 82 -188 102 -238 62 -152 118 -232 177 -254 16 -6 28 -17 28 -26
0 -8 -18 -122 -39 -252 -57 -343 -131 -853 -131 -900 0 -73 69 -129 195 -159
68 -16 151 -15 261 2 l42 6 27 -113 c14 -63 46 -213 71 -334 24 -121 46 -230
49 -242 4 -17 13 -23 31 -23 20 0 24 4 20 18 -3 9 -24 111 -46 226 -23 115
-61 297 -86 405 -105 457 -144 669 -164 896 -7 87 -19 138 -55 245 -55 165
-75 257 -75 352 0 148 49 262 242 558 67 102 135 209 152 237 17 29 35 53 40
53 17 0 -5 -528 -30 -710 -10 -73 5 -40 25 56 34 157 52 340 49 492 -2 78 1
142 6 142 4 0 61 -31 125 -69 64 -37 141 -81 171 -97 64 -34 60 -2 42 -312 -7
-112 -12 -292 -11 -400 l1 -197 34 350 c18 193 36 383 40 423 4 39 8 72 9 72
2 0 65 -31 141 -69 210 -103 298 -141 332 -141 25 0 45 15 121 98 l91 97 0
-418 c0 -237 4 -425 9 -435 5 -9 15 -123 21 -252 6 -129 15 -266 20 -305 21
-150 122 -581 183 -780 18 -60 56 -206 82 -322 l49 -213 28 0 c15 0 28 2 28 5
0 23 -170 675 -200 770 -37 116 -80 272 -80 294 0 5 24 22 53 36 63 32 111 76
140 130 21 38 22 55 25 343 l3 302 115 0 114 0 0 310 0 310 -85 0 c-50 0 -85
4 -85 10 0 6 6 10 13 10 7 0 129 38 271 85 142 47 262 85 266 85 4 0 10 -64
14 -142 7 -141 38 -476 55 -593 5 -36 6 102 3 350 l-5 410 292 98 c161 55 294
97 296 95 2 -1 -5 -68 -16 -148 -22 -171 -24 -383 -4 -494 7 -43 15 -79 17
-81 2 -2 3 76 4 173 0 158 34 538 50 564 3 5 19 15 35 23 30 16 49 13 49 -8 0
-16 66 -157 109 -232 19 -33 71 -116 116 -185 135 -205 203 -358 220 -492 6
-45 2 -76 -18 -150 -25 -91 -26 -105 -37 -643 -7 -302 -14 -704 -17 -892 l-6
-343 25 0 25 0 7 372 c5 278 9 374 19 380 6 4 29 8 50 8 29 0 37 -4 37 -17 0
-10 9 -32 19 -50 44 -70 193 -64 360 17 82 40 186 105 230 144 41 37 44 61 22
165 -12 53 -66 335 -121 626 -54 292 -105 556 -111 587 -6 31 -9 67 -6 80 4
13 52 98 108 188 115 185 170 310 249 561 28 90 65 205 82 254 16 50 32 115
34 145 l5 55 -30 -50 c-31 -51 -69 -157 -116 -324 -35 -124 -118 -347 -164
-442 -42 -85 -111 -195 -278 -444 -126 -189 -141 -210 -146 -204 -2 2 -16 40
-31 84 -61 178 -140 308 -270 443 -73 75 -104 100 -165 129 -42 21 -78 39 -81
41 -9 7 34 111 120 289 61 126 94 183 105 183 35 0 161 -87 224 -154 29 -31
41 -33 41 -7 0 25 -104 120 -174 161 l-56 31 0 90 c0 89 16 154 43 171 23 15
68 8 147 -23 79 -30 150 -47 150 -35 0 3 -26 19 -59 35 -105 54 -163 121 -177
207 -5 36 -3 45 25 76 33 38 81 61 218 103 93 29 128 52 113 75 -7 12 -36 16
-132 18 -149 3 -168 7 -168 31 0 13 14 25 43 37 36 16 72 18 257 19 189 0 219
2 243 18 34 22 34 32 2 53 -30 20 -141 16 -312 -11 -94 -15 -107 -15 -157 -1
-111 33 -126 107 -50 257 58 116 59 144 9 249 -49 105 -57 186 -48 468 6 194
5 204 -14 231 -17 22 -23 53 -31 173 l-11 146 50 149 c71 212 106 335 139 491
29 138 47 261 37 252 -3 -3 -30 -104 -61 -225 -52 -201 -158 -539 -175 -558
-4 -4 -13 50 -20 120 -7 71 -16 144 -21 163 -10 38 -7 -75 10 -400 6 -102 10
-227 10 -277 l0 -93 -57 -28 c-87 -44 -339 -120 -352 -106 -3 2 8 71 23 152
60 312 76 404 105 606 17 115 31 230 31 257 0 60 -12 70 -170 143 -63 29 -115
57 -118 64 -2 6 24 33 58 59 34 26 68 60 76 74 16 31 16 31 -167 286 -149 208
-209 297 -204 301 2 3 28 -5 57 -17 29 -11 188 -75 353 -140 569 -227 634
-251 665 -251 55 0 87 -25 119 -92 40 -87 70 -186 86 -294 12 -79 22 -107 74
-206 104 -195 138 -332 123 -488 l-7 -75 -49 120 c-85 211 -75 162 36 -190
101 -321 132 -437 162 -615 32 -184 58 -378 54 -392 -6 -18 -163 202 -286 402
-39 63 -23 20 35 -93 59 -117 142 -243 250 -385 l63 -83 0 38 c0 64 -58 495
-80 595 -30 133 -77 306 -102 374 -19 52 -22 87 -28 294 -7 273 -11 289 -118
500 -52 102 -66 141 -78 212 -17 107 -76 290 -110 341 -31 47 -79 77 -123 77
-32 0 -240 79 -691 263 -107 43 -266 105 -352 137 -203 75 -286 129 -425 279
-77 83 -105 120 -113 152 -23 86 14 233 101 395 30 55 55 119 65 165 9 41 26
92 37 114 18 33 21 59 22 150 0 61 -3 122 -7 137 -7 23 -5 25 12 21 26 -7 25
7 -1 41 -11 14 -51 88 -89 164 -92 183 -155 276 -258 380 -132 133 -255 203
-455 258 -129 36 -368 44 -473 15z m291 -21 c226 -26 424 -109 563 -235 162
-148 352 -479 379 -662 3 -21 1 -33 -6 -33 -6 0 -11 11 -11 24 0 28 -70 110
-112 132 -17 9 -41 13 -54 10 -28 -7 -125 16 -199 47 -64 26 -163 95 -203 142
-18 20 -32 29 -32 22 0 -27 82 -107 143 -141 34 -19 97 -46 140 -61 43 -16 80
-32 84 -37 3 -6 -3 -8 -13 -5 -11 3 -39 9 -64 12 -78 12 -148 45 -231 106 -45
33 -83 58 -86 55 -8 -8 42 -71 80 -101 18 -14 72 -44 121 -65 103 -46 128 -63
76 -54 -58 9 -122 35 -176 70 -28 19 -55 34 -59 34 -5 0 -19 10 -32 22 -13 12
-25 19 -28 16 -3 -3 17 -26 44 -51 27 -26 45 -49 40 -53 -5 -3 1 -14 13 -25
21 -17 21 -18 3 -13 -14 4 -9 -5 18 -30 46 -45 49 -67 3 -32 -46 35 -52 33
-23 -6 14 -18 28 -44 32 -58 l7 -25 -24 23 c-28 25 -47 30 -27 6 7 -9 13 -28
14 -42 0 -22 6 -27 40 -34 21 -5 42 -13 45 -18 4 -6 44 9 96 35 100 50 142 56
192 25 41 -25 62 -73 62 -142 0 -74 -34 -141 -115 -226 -128 -137 -286 -173
-297 -70 l-4 33 -13 -42 c-12 -37 -12 -45 3 -67 41 -63 91 -56 216 29 l80 54
0 -85 c0 -52 5 -95 14 -112 10 -21 12 -55 7 -147 -5 -101 -10 -126 -29 -157
-25 -41 -112 -123 -176 -167 -50 -35 -386 -235 -438 -262 -54 -28 -98 -24
-146 11 -44 32 -102 130 -102 172 0 27 39 54 173 118 73 36 95 52 131 99 24
31 67 79 96 106 51 49 89 111 116 188 23 64 9 54 -31 -23 -45 -85 -121 -157
-208 -199 -55 -26 -380 -141 -399 -141 -4 0 2 19 12 43 21 45 28 86 9 55 -5
-10 -16 -18 -23 -18 -6 0 -47 -37 -89 -81 -43 -45 -80 -79 -84 -76 -3 4 17 31
45 61 47 49 73 99 59 112 -3 3 -15 -12 -26 -33 -21 -42 -83 -103 -105 -103 -7
0 -19 -12 -27 -26 -12 -23 -78 -78 -86 -71 -1 2 30 36 69 77 64 66 107 134
108 168 0 25 -16 10 -38 -35 -29 -62 -96 -134 -100 -110 -3 13 -21 -5 -63 -58
-33 -41 -62 -75 -65 -75 -4 0 5 15 18 33 43 55 128 183 128 192 0 4 -29 -24
-64 -61 -35 -38 -67 -66 -72 -61 -4 4 3 29 16 55 35 67 36 72 6 29 -15 -20
-36 -56 -47 -80 -17 -36 -19 -38 -14 -12 2 17 7 40 11 53 4 13 2 22 -5 22 -6
0 -11 -8 -11 -18 0 -9 -8 -33 -19 -52 -10 -19 -26 -61 -35 -92 -9 -32 -20 -58
-25 -58 -5 0 -7 42 -5 93 l3 92 -14 -65 c-7 -36 -11 -75 -8 -87 3 -13 3 -23
-1 -23 -14 0 -48 88 -62 156 -12 66 -12 79 2 112 8 20 28 51 43 67 16 17 41
50 56 74 20 32 30 40 38 32 8 -8 8 -20 -1 -44 -18 -49 -15 -52 14 -18 29 35
50 42 34 10 -16 -29 -1 -39 17 -11 22 32 36 27 28 -10 l-6 -33 25 29 24 29 4
-34 4 -34 13 30 c8 20 9 31 2 33 -6 2 -11 15 -11 28 0 18 -5 24 -21 24 -42 0
-11 22 86 61 136 55 140 65 9 23 -105 -33 -206 -44 -248 -28 -21 8 -20 51 2
62 35 18 182 34 239 27 119 -15 185 -33 212 -59 35 -33 52 -34 21 -1 -28 30
-20 43 16 26 33 -15 40 -8 26 23 -17 38 -51 55 -122 62 -35 3 -76 11 -90 17
-14 5 -29 9 -33 9 -20 -5 -66 31 -76 59 -15 43 -14 49 7 49 12 0 25 -14 37
-40 25 -55 32 -57 29 -8 -2 43 -22 68 -55 68 -9 0 -22 6 -28 14 -6 8 -24 16
-39 18 -15 3 -36 9 -46 13 -17 7 -18 5 -11 -16 4 -13 8 -42 9 -64 1 -39 0 -40
-36 -43 -41 -3 -45 3 -23 32 8 11 15 34 15 52 0 23 7 36 25 48 27 18 110 22
120 6 7 -12 65 -13 81 -2 15 10 34 47 34 68 0 12 -10 6 -34 -22 l-34 -39 -30
33 c-26 28 -36 32 -81 32 -41 0 -52 -4 -62 -21 -9 -18 -17 -21 -56 -16 -100
11 -129 73 -70 151 19 24 59 92 88 150 40 79 59 106 74 107 18 2 18 2 -2 6
-13 2 -24 15 -29 31 -5 19 -8 22 -11 11 -3 -13 -11 -15 -36 -9 -31 7 -157 66
-157 74 0 2 14 30 30 61 26 50 30 67 30 139 0 136 33 219 135 340 128 150 336
267 525 294 90 13 103 13 205 2z m435 -834 c22 -27 -5 -17 -31 10 -21 24 -22
26 -3 16 11 -6 26 -18 34 -26z m418 -10 c35 -18 65 -52 60 -66 -2 -7 -26 8
-53 34 -52 47 -54 56 -7 32z m-275 -21 c77 -18 129 -39 145 -58 10 -12 0 -15
-63 -21 -63 -6 -82 -4 -119 12 -24 11 -47 25 -50 31 -10 15 0 14 64 -9 57 -20
146 -27 136 -11 -4 5 -28 12 -54 16 -46 6 -161 52 -135 54 6 1 41 -6 76 -14z
m252 -29 c23 -14 53 -42 68 -63 30 -43 46 -103 28 -103 -6 0 -11 7 -11 15 0 8
-32 50 -71 95 -39 44 -67 80 -63 80 4 0 26 -11 49 -24z m48 -111 c9 -8 17 -25
17 -37 0 -21 -2 -20 -16 7 -19 37 -40 59 -29 30 42 -109 42 -110 33 -187 -9
-93 -25 -140 -78 -238 -36 -67 -45 -63 -18 9 5 13 6 26 4 29 -10 9 -28 -52
-31 -101 -3 -48 -25 -93 -25 -51 0 68 32 176 69 234 37 57 61 130 61 185 0 38
-35 120 -69 164 -44 56 -38 60 17 12 26 -23 55 -48 65 -56z m-379 49 c41 -23
53 -44 25 -44 -13 0 -79 52 -79 63 0 11 3 9 54 -19z m-1330 -2 c3 -5 -11 -14
-31 -21 -29 -11 -37 -11 -44 0 -5 8 -9 17 -9 22 0 10 78 9 84 -1z m36 -97 c0
-10 -30 -65 -35 -65 -3 0 -5 16 -5 35 0 28 4 35 20 35 11 0 20 -2 20 -5z m-50
-84 c0 -6 -11 -23 -25 -38 l-26 -28 22 38 c21 37 29 45 29 28z m-3 -274 c-6
-20 -27 -19 -27 1 0 11 -3 29 -6 39 -4 14 -1 12 15 -6 12 -13 20 -29 18 -34z
m67 -25 c2 -4 -1 -27 -7 -50 -11 -40 -13 -42 -49 -42 -33 0 -41 -5 -64 -41
-14 -22 -28 -39 -30 -36 -10 10 39 93 80 134 40 41 60 51 70 35z m150 -34 c7
-18 16 -45 20 -60 6 -26 5 -26 -26 -17 -46 13 -54 24 -34 53 9 14 16 32 16 41
0 24 10 17 24 -17z m50 -135 c12 -7 -14 -10 -81 -11 -111 -1 -156 5 -147 20 8
13 203 5 228 -9z m1330 -319 c14 -37 36 -204 36 -276 0 -102 -26 -171 -93
-248 -65 -74 -220 -253 -269 -311 l-38 -44 -36 40 c-33 37 -72 93 -168 246
-21 34 -53 78 -70 97 -25 29 -28 36 -16 44 8 5 87 50 175 100 88 50 199 118
247 150 89 61 191 160 203 198 8 24 21 26 29 4z m149 -137 c63 -64 120 -110
179 -146 l87 -52 149 -212 c82 -117 174 -246 206 -287 31 -41 56 -80 56 -86 0
-7 -39 -41 -87 -77 l-87 -65 -61 40 c-78 53 -159 121 -270 229 -87 85 -193
173 -217 181 -8 3 -14 67 -20 204 -4 109 -14 236 -21 282 -8 45 -12 82 -10 82
2 0 45 -42 96 -93z m-1272 -157 c35 -34 91 -69 172 -110 113 -57 118 -60 94
-71 -39 -18 -81 -84 -126 -198 -42 -105 -91 -201 -103 -201 -5 0 -30 57 -74
170 -7 19 -13 58 -13 85 l-1 50 20 -25 20 -25 0 26 c0 15 -13 58 -29 95 -34
81 -51 214 -31 239 7 8 14 15 16 15 1 0 26 -22 55 -50z m-114 -17 c6 -16 -8
-159 -29 -273 -9 -54 -14 -63 -43 -78 -34 -17 -49 -31 -250 -222 -60 -58 -138
-126 -173 -152 l-63 -47 -59 62 c-33 34 -59 69 -60 77 0 15 130 165 327 377
82 88 120 121 172 148 37 20 87 56 111 80 48 49 57 53 67 28z m1283 -306 c0
-239 45 -1100 70 -1342 5 -49 10 -113 10 -141 l0 -51 -102 -8 c-55 -4 -107 -9
-115 -12 -10 -4 -13 -33 -13 -120 0 -106 -1 -115 -17 -108 -48 19 -172 45
-264 56 -112 13 -354 7 -448 -11 -30 -5 -56 -8 -59 -5 -3 2 -1 89 5 193 11
222 -3 188 191 462 245 345 439 654 589 935 50 94 101 196 114 228 12 31 26
57 31 57 4 0 8 -60 8 -133z m-695 82 c20 -23 45 -60 55 -82 21 -46 18 -56 -35
-122 -18 -22 -39 -53 -47 -70 l-16 -30 -83 5 c-74 4 -84 7 -87 25 -2 11 -15
60 -29 109 -25 87 -25 89 -7 128 28 63 55 78 139 78 72 0 73 0 110 -41z m524
-170 c-114 -228 -380 -656 -399 -644 -6 3 -10 25 -10 48 0 73 -37 219 -79 316
-23 52 -41 102 -41 111 0 22 50 98 88 134 l30 28 12 -23 c22 -42 123 -170 143
-181 24 -13 46 7 135 122 68 88 165 199 170 195 2 -2 -20 -49 -49 -106z m306
16 c22 -18 96 -85 165 -150 179 -168 269 -233 456 -324 89 -43 164 -84 168
-90 7 -11 -9 -136 -49 -390 -59 -367 -139 -762 -225 -1116 -124 -507 -121
-491 -127 -710 -5 -181 -3 -208 16 -290 23 -97 96 -258 131 -290 l21 -19 -7
29 c-4 17 -15 47 -25 67 -11 21 -19 43 -19 50 0 16 69 72 78 64 3 -4 0 -28 -8
-54 -8 -26 -14 -70 -14 -98 0 -44 9 -64 68 -161 90 -148 165 -363 126 -363 -5
0 -10 3 -10 8 0 4 -29 57 -65 117 -147 246 -326 632 -405 875 -51 155 -56 178
-47 210 6 19 11 91 10 160 -1 189 -53 362 -142 473 -37 47 -36 45 -55 182 -56
401 -126 1369 -126 1747 l0 129 23 -12 c12 -6 40 -26 62 -44z m-1484 -147
c-36 -227 -88 -636 -146 -1139 -75 -647 -122 -946 -196 -1239 -108 -434 -162
-572 -330 -860 -40 -69 -97 -170 -127 -225 -40 -75 -52 -91 -47 -65 3 19 12
84 21 143 15 105 51 262 73 321 l12 29 22 -22 c51 -47 109 -12 121 74 9 56 -8
94 -50 115 -35 18 -35 16 11 120 19 41 44 98 56 125 21 47 22 49 29 25 15 -48
10 -185 -10 -279 -11 -52 -20 -103 -20 -115 1 -18 3 -17 16 8 89 164 84 387
-21 831 -78 330 -104 471 -140 760 -32 259 -46 451 -52 696 l-6 257 34 17 c19
10 92 52 162 94 133 78 237 163 417 337 123 119 183 164 188 140 2 -9 -6 -75
-17 -148z m111 -48 c50 -234 168 -532 318 -801 l60 -108 -50 -79 c-47 -73 -52
-86 -60 -168 -5 -49 -10 -123 -10 -165 0 -42 -3 -97 -6 -122 -6 -45 -8 -47
-58 -63 -150 -50 -261 -120 -367 -231 -41 -43 -89 -106 -107 -141 -19 -35 -35
-62 -37 -60 -2 2 10 94 26 204 16 111 58 453 94 760 36 308 79 651 96 764 16
113 34 241 40 285 15 107 20 119 31 65 5 -25 18 -88 30 -140z m284 74 l17 -64
-41 -87 c-41 -89 -65 -168 -77 -256 -3 -26 -10 -45 -15 -42 -25 16 -148 418
-137 448 3 7 10 -1 16 -18 26 -65 44 -95 56 -95 17 0 40 33 95 134 50 91 56
90 86 -20z m90 -139 c-4 -42 -9 -83 -12 -93 -3 -9 4 -2 16 15 12 18 26 30 31
27 17 -10 10 -81 -12 -108 -17 -21 -18 -26 -5 -26 30 0 48 45 47 121 0 39 -3
87 -7 106 l-6 34 36 -3 c37 -3 37 -3 77 -103 55 -140 67 -184 83 -315 12 -104
12 -118 -3 -146 -33 -63 -206 -304 -216 -301 -5 2 -52 84 -103 183 l-92 179 6
85 c7 105 25 180 69 288 41 101 60 132 82 132 14 0 15 -10 9 -75z m2127 -1399
c-8 -36 -15 -43 -77 -77 -66 -35 -208 -86 -363 -128 -62 -17 -73 -17 -73 -5 0
14 40 207 44 211 1 2 54 16 117 32 149 37 261 78 312 112 l42 28 3 -67 c1 -37
-1 -85 -5 -106z m-1174 141 c5 -12 10 -59 12 -102 l4 -80 -112 -3 -113 -3 0
106 0 105 100 0 c95 0 101 -1 109 -23z m37 -289 c5 -43 9 -78 7 -78 -2 0 -29
19 -59 41 -30 23 -87 59 -127 80 l-72 39 120 -3 120 -2 11 -77z m1131 -348
c-6 -372 -23 -631 -58 -865 -17 -116 -27 -154 -59 -220 l-38 -80 -7 40 c-37
226 -201 943 -212 931 -2 -2 18 -120 46 -262 86 -441 121 -644 132 -761 l10
-112 -62 -131 c-34 -71 -65 -130 -69 -130 -4 0 -11 28 -14 63 -9 76 -78 408
-105 499 -30 102 -79 231 -138 363 -30 66 -65 147 -79 180 l-25 60 29 130 c16
72 51 221 78 333 l49 203 40 9 c180 45 399 121 448 155 21 15 22 14 31 -17 4
-18 6 -193 3 -388z m-1705 8 c79 -36 140 -96 174 -171 26 -56 29 -72 29 -172
0 -102 -2 -115 -31 -175 -38 -80 -105 -154 -260 -285 -269 -228 -330 -302
-381 -456 l-28 -84 -6 70 c-9 96 -10 871 -2 1029 l6 130 35 38 c75 84 150 109
307 104 83 -2 110 -7 157 -28z m1788 -29 c11 -40 6 -79 -10 -79 -11 0 -20 38
-20 88 0 52 15 47 30 -9z m-2345 -561 c-7 -408 5 -779 30 -897 8 -40 15 -97
15 -127 0 -48 2 -54 20 -54 58 0 16 -66 -167 -259 l-88 -93 -90 40 c-287 126
-835 428 -835 460 0 4 24 50 53 102 123 221 142 251 157 246 8 -2 69 -20 135
-40 66 -21 141 -40 167 -43 l46 -6 11 39 c17 61 25 190 13 198 -6 3 -64 22
-129 42 -65 20 -122 39 -127 44 -5 5 11 69 37 147 25 76 62 207 83 291 36 147
38 152 63 152 25 0 426 -44 507 -56 l40 -6 11 59 c12 62 37 133 49 133 3 0 3
-168 -1 -372z m2843 104 c2 -8 -9 -12 -32 -12 -41 0 -46 7 -13 20 26 10 39 8
45 -8z m-1455 -293 c27 -78 45 -145 40 -150 -7 -7 -319 -79 -343 -79 -7 0 21
35 60 78 84 90 144 178 168 245 9 26 19 47 22 47 3 0 27 -64 53 -141z m252
-69 c30 -60 55 -116 55 -123 0 -8 -16 -28 -35 -45 -33 -30 -35 -31 -45 -13
-20 37 -40 147 -40 219 0 39 2 72 5 72 3 0 30 -49 60 -110z m-2641 -56 c12 -4
16 -20 16 -53 0 -54 -19 -87 -44 -78 -19 7 -23 86 -6 118 12 21 12 21 34 13z
m428 -134 c9 0 19 -4 23 -9 5 -9 -21 -180 -28 -187 -7 -8 -317 93 -317 102 0
2 18 40 39 83 l40 78 113 -33 c62 -18 121 -33 130 -34z m2067 -11 c18 -44 30
-83 27 -86 -7 -8 -465 -123 -487 -123 -14 0 -19 18 -29 85 -7 47 -10 91 -7 99
3 8 65 26 159 45 84 18 178 39 208 46 96 22 92 24 129 -66z m-516 -140 l12
-84 35 -3 c33 -3 268 44 445 89 44 11 81 17 82 12 5 -13 172 -324 194 -360
l20 -32 -42 -22 c-23 -11 -85 -37 -138 -56 -108 -40 -1140 -383 -1152 -383
-13 0 -289 336 -289 352 0 4 101 8 225 8 l225 0 0 86 c0 141 10 166 109 263
86 85 252 223 259 217 2 -2 9 -42 15 -87z m-783 -629 c29 -36 86 -107 127
-157 40 -51 80 -93 88 -93 8 0 17 -4 20 -10 4 -7 -58 -10 -179 -10 l-186 0 0
135 0 134 31 36 c18 20 35 34 39 33 4 -2 31 -32 60 -68z m-1532 -17 c-2 -9
-19 -22 -39 -29 -137 -47 -266 -236 -289 -424 -6 -54 -7 -55 -19 -26 -15 36
-4 93 39 204 60 155 192 286 293 291 12 1 17 -5 15 -16z m-77 -126 c-55 -80
-149 -276 -161 -334 -7 -32 -16 -69 -20 -83 l-8 -25 -11 28 c-38 97 28 287
139 399 72 71 106 80 61 15z m3417 29 c34 -18 159 -144 210 -212 48 -64 132
-225 132 -253 0 -24 -61 -151 -72 -151 -4 0 -8 13 -8 28 0 36 -48 180 -85 252
-23 48 -155 261 -202 328 -18 26 -12 27 25 8z m693 -582 c16 -88 52 -278 80
-424 27 -146 70 -370 96 -499 l46 -235 -40 -35 c-22 -20 -77 -58 -121 -85
-167 -100 -349 -137 -381 -77 -12 22 -48 262 -95 641 -54 429 -53 407 -20 516
22 74 32 93 44 88 8 -3 39 -8 68 -11 48 -5 55 -3 83 23 17 16 45 49 62 74 66
96 139 192 143 187 3 -2 18 -76 35 -163z m-4271 -144 c7 -30 30 -106 52 -168
31 -94 40 -136 48 -240 6 -70 15 -165 22 -212 11 -86 4 -542 -9 -563 -10 -17
-165 -2 -219 22 -68 31 -94 57 -94 98 0 54 102 740 166 1113 7 42 16 29 34
-50z m1933 -217 c3 -227 -2 -390 -14 -436 -13 -50 -56 -97 -128 -140 l-60 -35
-10 51 c-20 100 -30 173 -40 282 -15 161 -25 421 -17 434 5 7 52 11 137 11
l129 0 3 -167z"/>
<path d="M2649 8942 c25 -46 118 -135 181 -173 63 -37 170 -84 170 -75 0 2
-33 23 -74 45 -76 41 -211 144 -243 185 -10 12 -24 26 -31 30 -11 7 -12 4 -3
-12z"/>
<path d="M2015 8547 c-67 -32 -229 -87 -253 -87 -24 0 -50 29 -62 66 l-8 29
-1 -30 c-1 -41 21 -71 77 -100 26 -13 41 -24 34 -25 -7 0 -22 5 -33 10 -15 8
-19 7 -19 -5 0 -10 10 -15 31 -15 47 0 72 -17 65 -45 -8 -30 5 -39 30 -20 29
22 42 18 37 -10 -4 -18 3 -33 25 -55 37 -37 65 -41 31 -4 l-24 26 52 -7 c31
-4 59 -3 70 4 15 9 11 10 -20 11 -41 0 -77 14 -77 30 0 6 15 10 33 10 38 0 62
13 53 29 -10 16 59 14 76 -1 7 -7 30 -14 51 -15 21 -1 45 -7 53 -14 16 -13 27
-9 16 7 -17 25 -209 89 -281 94 -3 1 10 9 29 19 19 10 54 28 77 40 l41 22 61
-25 c47 -20 66 -24 86 -16 29 11 33 30 6 30 -11 0 -50 16 -87 35 -79 41 -102
43 -169 12z"/>
<path d="M2230 8410 c8 -5 31 -9 50 -9 29 0 31 2 15 9 -11 5 -33 9 -50 9 -23
1 -26 -2 -15 -9z"/>
<path d="M2343 8343 c9 -2 25 -2 35 0 9 3 1 5 -18 5 -19 0 -27 -2 -17 -5z"/>
<path d="M2975 8301 c-36 -21 -57 -51 -74 -103 -11 -32 -10 -43 3 -70 19 -37
13 -47 -17 -29 -17 11 -22 11 -25 1 -3 -7 -20 -30 -39 -51 -39 -44 -28 -61 18
-28 19 13 46 22 70 22 29 0 44 5 54 21 23 32 19 79 -9 103 -29 25 -25 59 8 69
11 3 30 14 41 24 39 33 45 33 60 -4 8 -19 15 -51 15 -71 0 -43 15 -46 24 -4
22 114 -42 174 -129 120z"/>
<path d="M2248 8243 c7 -3 16 -2 19 1 4 3 -2 6 -13 5 -11 0 -14 -3 -6 -6z"/>
<path d="M2850 8157 c0 -14 5 -29 10 -32 7 -4 8 3 4 22 -9 38 -14 42 -14 10z"/>
<path d="M1819 8101 c12 -16 21 -32 21 -35 0 -14 112 -156 130 -166 30 -16 24
0 -17 52 -21 25 -59 76 -85 112 -26 36 -52 66 -58 66 -6 0 -2 -13 9 -29z"/>
<path d="M3060 8090 c-17 -40 -84 -99 -121 -107 -19 -4 -27 -9 -21 -15 22 -22
132 65 153 119 14 37 4 40 -11 3z"/>
<path d="M1830 7842 c0 -4 7 -18 16 -31 11 -15 19 -19 24 -12 4 8 15 5 33 -9
15 -12 27 -18 27 -13 0 11 92 4 106 -8 7 -6 15 -26 19 -45 3 -20 9 -34 12 -30
3 3 2 21 -1 41 -5 26 -16 41 -39 55 -35 22 -82 26 -92 9 -5 -7 -15 -4 -29 9
-35 32 -76 50 -76 34z"/>
<path d="M1741 7484 c0 -11 3 -14 6 -6 3 7 2 16 -1 19 -3 4 -6 -2 -5 -13z"/>
<path d="M1776 7444 c-6 -24 -2 -43 8 -33 11 10 17 59 8 59 -5 0 -13 -12 -16
-26z"/>
<path d="M1453 7358 c-12 -19 -7 -148 6 -161 8 -8 11 13 11 81 0 51 -2 92 -4
92 -3 0 -8 -6 -13 -12z"/>
<path d="M2270 5430 c-30 -30 -27 -83 6 -109 38 -30 77 -27 112 9 25 25 39 30
76 30 34 0 46 4 46 15 0 11 -12 15 -48 15 -40 0 -52 5 -74 30 -32 37 -87 41
-118 10z m95 -24 c13 -19 14 -28 4 -50 -22 -47 -89 -25 -89 29 0 45 60 60 85
21z"/>
<path d="M3670 6052 c0 -10 209 -112 228 -112 8 0 12 7 10 16 -2 10 -42 34
-103 60 -98 42 -135 52 -135 36z"/>
<path d="M2293 4352 c-28 -4 -63 -47 -63 -77 0 -12 9 -34 21 -49 30 -38 85
-36 124 4 23 24 37 30 72 30 32 0 43 4 43 15 0 11 -12 15 -46 15 -38 0 -49 5
-70 29 -25 31 -46 39 -81 33z m51 -38 c30 -29 11 -84 -29 -84 -26 0 -55 33
-55 63 0 31 59 47 84 21z"/>
<path d="M2255 3825 c-52 -51 -11 -135 66 -135 11 0 35 14 52 32 18 17 41 32
52 33 57 4 65 6 65 20 0 11 -12 15 -46 15 -38 0 -49 5 -71 30 -32 39 -83 41
-118 5z m86 -5 c13 -7 19 -21 19 -44 0 -44 -20 -61 -57 -49 -22 7 -29 17 -31
42 -5 52 25 74 69 51z"/>
<path d="M4750 4281 c-103 -15 -245 -69 -227 -88 3 -3 60 0 127 7 182 19 415
-2 592 -55 28 -8 54 -13 56 -10 17 16 -168 108 -258 129 -83 19 -219 27 -290
17z"/>
<path d="M283 4192 c-121 -43 -271 -137 -251 -157 3 -3 39 12 79 34 151 81
285 105 434 78 44 -8 82 -13 84 -11 8 7 -24 36 -63 56 -29 15 -65 23 -121 25
-69 3 -91 0 -162 -25z"/>
<path d="M5045 3985 c-29 -29 -30 -36 -9 -78 17 -33 201 -227 216 -227 15 0
-24 64 -76 125 -82 95 -109 134 -102 150 4 12 25 15 105 15 108 0 131 5 131
26 0 11 -24 14 -120 14 -115 0 -122 -1 -145 -25z"/>
<path d="M74 3835 c9 -13 16 -32 16 -41 0 -23 -51 -134 -61 -134 -5 0 -9 19
-10 43 -1 23 -5 53 -9 67 -5 15 -8 -36 -9 -129 l-1 -153 65 130 c36 72 65 144
65 160 0 18 -10 38 -28 55 -35 34 -49 35 -28 2z"/>
<path d="M4620 3751 c-11 -8 -5 -11 28 -11 73 0 176 -29 267 -75 86 -43 87
-43 59 -14 -16 17 -61 46 -99 65 -58 29 -85 36 -155 40 -52 3 -91 1 -100 -5z"/>
<path d="M340 3686 c-97 -27 -193 -96 -234 -168 l-20 -33 40 36 c91 81 175
127 278 150 31 7 59 16 62 21 8 12 -74 8 -126 -6z"/>
<path d="M5075 3428 c-22 -5 -112 -8 -199 -6 -141 3 -156 2 -126 -10 101 -41
254 -38 352 6 47 22 36 26 -27 10z"/>
<path d="M4437 3374 c-10 -10 19 -58 107 -177 46 -62 109 -152 140 -202 63
-98 64 -87 6 41 -47 101 -99 183 -157 248 -45 50 -51 73 -11 41 13 -10 6 -2
-14 18 -36 35 -57 44 -71 31z"/>
<path d="M467 3308 c-75 -90 -143 -190 -187 -276 -23 -46 -41 -85 -38 -87 2
-3 32 35 65 83 33 48 86 118 116 157 65 81 112 161 98 169 -5 4 -29 -18 -54
-46z"/>
<path d="M4183 1260 c-51 -102 -119 -236 -152 -297 -33 -62 -58 -113 -56 -113
8 0 158 245 209 342 54 102 100 220 94 242 -2 6 -44 -72 -95 -174z"/>
<path d="M1365 955 c7 -268 40 -879 51 -932 4 -21 34 -34 34 -15 0 4 -11 151
-25 327 -13 176 -31 435 -40 575 -9 140 -18 260 -21 265 -2 6 -2 -93 1 -220z"/>
<path d="M3281 1135 c-3 -46 70 -744 106 -1012 13 -101 19 -123 32 -123 19 0
24 -54 -74 695 -54 411 -62 467 -64 440z"/>
</g>
</svg>
