<?xml version="1.0" standalone="no"?>
<!DOCTYPE svg PUBLIC "-//W3C//DTD SVG 20010904//EN"
 "http://www.w3.org/TR/2001/REC-SVG-20010904/DTD/svg10.dtd">
<svg version="1.0" xmlns="http://www.w3.org/2000/svg"
 width="716.000000pt" height="1273.000000pt" viewBox="0 0 716.000000 1273.000000"
 preserveAspectRatio="xMidYMid meet">

<g transform="translate(0.000000,1273.000000) scale(0.100000,-0.100000)"
fill="#000000" stroke="none">
<path d="M3142 12130 c-584 -38 -1097 -242 -1415 -563 -182 -183 -275 -348
-402 -712 -52 -149 -95 -243 -194 -424 -113 -207 -116 -247 -31 -386 21 -34
40 -70 44 -81 11 -37 -17 -71 -365 -447 -75 -81 -127 -146 -145 -183 -69 -142
-12 -294 139 -370 26 -13 47 -30 47 -37 0 -8 -12 -24 -26 -38 -41 -38 -113
-135 -129 -173 -32 -76 -8 -150 75 -234 l50 -49 -9 -47 c-11 -59 -3 -95 37
-171 18 -33 32 -71 32 -85 0 -36 -30 -87 -64 -109 -47 -31 -136 -122 -161
-166 -38 -66 -54 -128 -64 -253 -5 -65 -24 -179 -41 -252 -35 -148 -34 -182 6
-229 64 -77 226 -70 682 30 174 37 194 40 287 34 222 -15 330 -53 442 -158 93
-87 183 -228 183 -286 0 -32 -238 -248 -364 -329 -71 -46 -302 -160 -596 -295
-790 -362 -836 -389 -901 -526 -53 -113 -47 -210 23 -386 128 -319 628 -1639
628 -1658 0 -8 -16 -22 -35 -31 -19 -9 -35 -23 -35 -31 0 -7 -6 -15 -13 -17
-9 -4 -13 -88 -15 -366 l-3 -362 -68 0 c-41 0 -80 -6 -98 -15 -63 -32 -61 28
-61 -1265 -1 -743 2 -1186 9 -1206 6 -21 21 -35 48 -47 35 -16 233 -17 2821
-17 3145 0 2850 -8 2869 79 14 70 8 2388 -7 2423 -7 18 -19 28 -32 28 -11 0
-20 5 -20 10 0 6 -33 10 -80 10 l-80 0 0 336 c0 393 -3 413 -63 440 -23 11
-43 27 -45 37 -2 10 17 64 41 120 288 655 495 1115 627 1397 132 281 218 475
240 540 48 142 48 342 -1 404 -11 13 -108 77 -217 142 -259 154 -591 354 -722
435 -70 43 -133 92 -190 149 -106 105 -167 195 -360 531 -61 105 -124 207
-140 226 -17 18 -30 42 -30 52 0 28 86 300 131 412 45 114 61 143 210 364 129
191 180 290 239 462 90 258 146 540 159 788 19 379 -36 590 -252 973 -52 92
-132 237 -177 322 -110 205 -164 292 -254 404 -300 372 -860 695 -1400 806
-231 47 -516 66 -764 50z m614 -179 c246 -42 445 -104 661 -206 358 -169 666
-420 847 -689 30 -45 102 -169 159 -276 58 -107 143 -264 190 -347 96 -174
159 -324 188 -450 32 -136 37 -407 11 -583 -42 -284 -127 -580 -215 -756 -25
-49 -98 -168 -162 -263 -65 -95 -137 -215 -161 -266 -24 -50 -82 -207 -128
-348 -46 -141 -94 -272 -105 -291 -81 -131 -715 -532 -1243 -785 -424 -204
-997 -421 -1073 -407 -53 10 -152 82 -256 185 -102 102 -135 154 -198 316 -44
114 -108 218 -190 308 -39 42 -71 81 -71 86 0 14 22 27 75 45 67 22 95 42 95
70 0 47 -17 50 -188 31 -132 -15 -177 -16 -286 -7 -162 14 -167 18 -136 98 37
97 28 194 -20 209 -34 11 -59 -12 -76 -73 -22 -75 -58 -128 -119 -174 -66 -50
-120 -69 -311 -112 -252 -56 -404 -66 -404 -27 0 5 11 51 25 103 13 51 31 157
39 235 18 171 38 219 118 285 111 91 143 130 162 196 20 72 23 73 135 70 64
-3 75 0 87 17 33 49 -51 104 -190 126 -70 11 -96 34 -96 83 0 17 9 46 20 64
18 29 24 32 67 32 56 0 180 -32 347 -89 202 -69 258 -102 321 -185 28 -36 42
-46 64 -46 49 0 55 18 47 139 -10 169 -50 264 -150 359 -44 42 -62 53 -84 50
-40 -5 -40 -38 2 -122 42 -84 54 -126 35 -126 -7 0 -91 27 -188 61 -266 91
-348 111 -465 110 -79 -1 -103 3 -118 16 -40 36 -15 80 134 238 75 79 76 80
124 79 33 -1 71 -12 114 -33 101 -48 182 -38 232 30 54 73 63 171 24 256 -25
52 -49 73 -84 73 -39 0 -46 -25 -27 -91 20 -75 14 -121 -22 -149 -31 -24 -52
-20 -106 22 -81 64 -187 84 -261 49 -31 -15 -46 -17 -75 -9 -99 28 -145 110
-106 192 8 17 104 126 212 241 314 336 328 354 321 445 -3 45 -13 70 -52 133
-30 48 -48 89 -49 110 -1 23 23 76 85 187 94 169 114 215 190 425 72 200 136
340 203 442 76 114 260 298 379 377 241 161 526 265 863 316 189 28 187 28
463 25 202 -2 280 -7 376 -24z m1509 -4709 c22 -34 88 -144 148 -245 59 -100
141 -227 182 -282 49 -65 75 -109 75 -126 0 -15 -9 -71 -20 -125 -12 -55 -52
-261 -91 -458 -84 -432 -77 -404 -100 -417 -18 -9 -215 -67 -519 -153 -139
-40 -158 -49 -166 -83 -9 -34 -2 -44 121 -190 112 -131 226 -277 242 -308 6
-11 8 -26 6 -33 -3 -7 -53 -45 -111 -84 -542 -363 -1027 -713 -1387 -1002
l-150 -121 -503 -3 c-425 -2 -503 -1 -508 11 -11 30 334 497 635 862 108 131
268 319 605 709 448 520 830 1032 1113 1491 85 138 187 323 273 495 29 58 57
111 63 118 21 26 52 8 92 -56z m-320 -74 c-22 -74 -228 -421 -411 -694 -271
-406 -570 -790 -972 -1251 -123 -141 -147 -156 -177 -110 -8 13 -73 159 -144
324 -157 364 -210 478 -285 607 -31 54 -56 106 -54 115 2 11 47 31 138 63 325
115 570 218 875 368 349 172 666 356 940 544 44 31 84 55 88 56 5 0 5 -10 2
-22z m1131 -820 c131 -79 336 -201 455 -271 118 -70 226 -138 240 -153 22 -23
24 -33 22 -113 -2 -118 -21 -173 -209 -578 -208 -450 -500 -1104 -650 -1453
-31 -74 -64 -142 -71 -150 -12 -13 -141 -15 -1026 -18 -953 -3 -1098 -1 -1096
16 3 29 643 497 1219 890 157 107 300 206 317 219 34 26 50 74 38 112 -6 20
-171 237 -274 361 -29 34 -51 70 -49 78 2 12 74 37 277 95 151 43 287 87 302
98 33 24 43 51 69 199 45 250 152 785 161 803 6 10 16 16 23 14 7 -3 121 -70
252 -149z m-3956 135 c0 -3 -18 -99 -40 -212 -92 -479 -131 -777 -171 -1311
-6 -80 -13 -413 -16 -741 l-5 -596 -67 -7 c-36 -3 -222 -6 -412 -6 -317 0
-347 1 -361 18 -8 9 -55 123 -103 252 -79 211 -332 872 -502 1310 -96 247 -95
309 5 407 48 47 139 93 637 323 375 173 424 194 430 188 3 -2 -51 -81 -118
-174 -213 -292 -297 -421 -297 -455 0 -41 5 -49 147 -241 67 -93 123 -175 123
-185 0 -9 -26 -57 -58 -107 -83 -128 -142 -233 -152 -266 -10 -36 12 -70 45
-70 27 0 31 5 210 259 85 121 109 161 109 187 0 36 -5 43 -171 268 -57 77
-103 146 -103 154 0 27 284 426 452 634 93 115 147 171 255 262 121 103 163
131 163 109z m221 -94 c41 -40 102 -94 137 -121 34 -28 62 -55 62 -62 0 -7
-16 -28 -36 -47 -50 -47 -179 -202 -210 -250 -14 -22 -34 -77 -45 -121 -11
-45 -27 -96 -36 -112 -27 -54 -95 -138 -104 -129 -7 7 21 235 51 408 54 318
93 505 103 505 2 0 37 -32 78 -71z m402 -279 c53 -42 227 -365 227 -420 0 -37
-24 -87 -97 -200 -79 -122 -120 -170 -146 -170 -45 0 -302 71 -314 86 -15 21
-27 142 -28 285 l0 115 43 57 c64 85 204 237 232 252 35 20 53 18 83 -5z m449
-910 c55 -124 105 -231 111 -238 8 -10 7 -19 -2 -34 -24 -39 -303 -368 -311
-368 -12 0 -13 4 -80 343 -34 170 -57 313 -53 320 12 19 142 207 171 246 l25
34 20 -39 c11 -21 65 -140 119 -264z m-1017 -48 c-59 -103 -109 -189 -111
-191 -14 -15 -15 29 -3 180 l13 171 90 89 91 88 14 -75 13 -75 -107 -187z
m423 49 c57 -16 108 -33 113 -38 12 -12 149 -703 149 -750 0 -17 -4 -34 -9
-37 -17 -11 -305 -398 -430 -577 l-122 -176 -112 -7 c-124 -8 -142 -5 -151 27
-3 12 -6 229 -6 482 l0 460 53 110 c91 188 255 481 296 529 20 23 75 18 219
-23z m3330 -2108 l2 -293 -2460 0 -2460 0 0 290 0 290 2423 3 c1332 1 2438 2
2457 2 l35 0 3 -292z m250 -1615 l2 -1098 -2705 0 -2705 0 0 1100 0 1100 2703
-2 2702 -3 3 -1097z"/>
<path d="M1875 10334 c-11 -3 -86 -32 -168 -65 -115 -46 -161 -60 -214 -63
-55 -3 -71 -8 -85 -26 -30 -37 -7 -81 65 -126 36 -24 37 -25 37 -88 0 -80 26
-116 99 -141 59 -19 64 -33 55 -143 -5 -70 -4 -80 18 -112 19 -29 30 -35 58
-35 l35 0 0 68 c0 84 15 100 108 116 91 16 105 15 279 -21 131 -27 159 -30
172 -19 19 16 21 45 4 59 -19 15 -249 105 -363 142 -55 17 -142 40 -193 51
-112 23 -132 32 -132 64 0 52 20 73 124 124 182 89 200 90 386 12 225 -95 351
-104 325 -22 -3 10 -94 62 -208 120 l-202 103 -90 4 c-49 1 -99 1 -110 -2z"/>
<path d="M4250 9709 c-96 -19 -276 -120 -376 -212 -82 -74 -105 -135 -67 -172
26 -27 68 -11 140 53 35 33 99 79 141 104 197 116 316 117 420 4 119 -129 131
-334 33 -556 -54 -125 -122 -215 -213 -284 -133 -102 -368 -264 -412 -285 -55
-27 -150 -30 -195 -7 -38 20 -71 70 -71 109 0 28 -31 67 -53 67 -35 0 -50 -31
-98 -202 -27 -97 -58 -201 -69 -230 -58 -156 -146 -226 -425 -338 -145 -58
-361 -153 -393 -172 -28 -17 -33 -25 -30 -51 7 -68 66 -57 444 83 389 145 478
223 563 498 35 112 38 115 104 87 22 -9 67 -15 112 -15 120 0 156 19 465 237
233 165 301 238 385 415 83 175 112 351 81 491 -61 271 -255 421 -486 376z"/>
<path d="M4212 9354 c-60 -30 -142 -101 -171 -147 -24 -40 -27 -71 -17 -169
10 -96 2 -111 -83 -157 -34 -18 -68 -43 -77 -56 -34 -52 15 -90 85 -65 199 71
243 133 211 301 -12 65 -12 72 6 95 10 14 38 40 62 57 34 24 55 32 105 35 98
7 124 47 68 103 -25 25 -37 29 -83 29 -38 0 -69 -8 -106 -26z"/>
</g>
</svg>
